<?xml version="1.0" encoding="utf-8"?><svg width="272" height="220" viewBox="0 0 272 220" xmlns="http://www.w3.org/2000/svg" xmlns:xlink="http://www.w3.org/1999/xlink"><svg id="clear-view-escapes" width="143.7" height="59.7" viewBox="-1 -1 143.7 59.7" xmlns="http://www.w3.org/2000/svg"><style>.ast0{display:none;fill:#7c7c7c}.ast1{fill:#fff}</style><path class="ast0" d="M-.2 0h141.7v57.7H-.2z"/><g id="aLogo"><path class="ast1" d="M51.8 19.7c4.7 0 8.3 3.9 8.4 8.9 0 5.1-3.7 9.1-8.5 9-4.8 0-8.3-3.9-8.3-9s3.6-8.9 8.4-8.9zm4.8 9c0-3.2-2.1-5.7-4.9-5.7-2.7 0-5 2.5-5 5.7 0 3.1 2.2 5.7 5 5.7s4.9-2.4 4.9-5.7zM40.8 22.3c-.6.8-1.3 1.6-2 2.5-1.6-1.4-3.3-2.4-5.3-1.7-.9.3-1.8 1-2.4 1.8-1.7 2.2-1.5 5.6.2 7.7 1.8 2.2 4.3 2.1 7.6-.3.6.7 1.3 1.4 1.9 2.1-2.2 3.6-8 4.1-11.4 1.1-3.7-3.3-4-9.6-.7-13.3 3.2-3.4 9.2-3.4 12.1.1zM99.9 36.3c-1.1.4-2 1-3.1 1.3-2.8.6-4.9-1.6-4.7-4.6.1-2 1.7-3.5 4.1-3.6 1.2 0 2.4.2 3.6.3.4-1.3-.4-2.6-2-2.7-1.2-.1-2.5.2-3.8.4 0 0-.1 0-.1-.1-.7-2.5-1.4-2.4 1.5-3 1.3-.3 2.6-.3 3.9-.1 2.2.3 3.7 2 3.8 4.6.1 2.8 0 5.7 0 8.6h-3c-.1-.5-.2-.9-.2-1.1zm-2.6-.9c.7-.3 1.5-.4 1.9-1 .4-.5.6-1.4.7-2.1 0-.3-.8-.7-1.3-.8-.5-.1-1.1-.1-1.7 0-1.2.2-1.8.9-1.7 2.1.1 1.1.8 1.6 2.1 1.8z"/><path class="ast1" d="M22.3 57c-9.6.4-20.5-11.6-22-23.9C-1.5 18.5 6.6 4.9 19.3 1c13-3.9 25.7 3.6 30.6 15.1-.1.1-.4.2-.5.3-.2-.4-.4-.7-.6-1.1-3.7-7-9-11.6-16.1-13.7-14.3-4.1-29 6.3-31.6 22.3-2.5 16 8.8 31.4 21.2 32.3v.8zM73.5 25.9c-.6.7-1.2 1.4-1.8 2.3-1.1-1-2.2-1.8-3.6-1.2-.6.2-1.3.7-1.7 1.3-1.1 1.5-.9 4 .3 5.4 1.2 1.4 2.7 1.4 5.1-.2.5.7 1.1 1.3 1.6 2-2.1 2.9-6.3 3.1-8.9.5-2.6-2.6-2.7-7.2-.3-9.9 2.6-3 6.9-3 9.3-.2zM113.5 23.9v1.3c.1 1.4 0 2.5-1.7 2.8-1.8.4-2.2 2.2-2.3 4-.1 1.7 0 3.5 0 5.3h-3.1c0-.5-.1-1-.1-1.5V25.6c0-1.2.3-1.7 1.4-1.6.5.1 1.1 0 1.7 0 0 .8.1 1.5.2 2.6 1.1-1.6 2-2.9 3.9-2.7zM79.4 37.3h-3.1V24.1h3c.1.7.1 1.5.2 2.6 1-1.7 1.9-3 3.8-2.9v3.1c0 .2-.3.5-.6.6-2.6 1-3.3 2-3.3 5.1v4.7zM89.1 24.1v13.2h-3V24.1h3zM85.9 22.2v-3h3.4v3h-3.4zM46 47.3c2.2-2.6 3.6-5.7 3.9-6.7h.4c-.2 1.8-2.6 6-3.9 6.9-.2-.1-.3-.1-.4-.2zM30.4 56.1c-.3.2-.6.3-1 .3-.3 0-.6-.1-.9-.2-.3-.1-.5-.3-.7-.5-.2-.2-.3-.5-.5-.8-.1-.3-.2-.6-.2-.9 0-.3.1-.6.2-.9.1-.3.3-.6.5-.8.2-.2.4-.4.7-.5.3-.1.5-.2.9-.2.2 0 .4 0 .5.1.2 0 .3.1.5.2.1.1.3.2.4.3l.3.3-.3.3c-.2-.2-.4-.4-.6-.5-.2-.2-.5-.2-.8-.2-.2 0-.5.1-.7.2-.2.1-.4.2-.5.4-.2.2-.3.4-.4.6-.1.2-.1.5-.1.8 0 .3 0 .5.1.8s.2.5.4.6.3.3.6.4c.2.1.4.2.7.2.3 0 .6-.1.8-.2.2-.1.4-.3.6-.6l.3.3c-.3.1-.5.3-.8.5zM34.5 52c-.2 0-.5.1-.7.2-.2.1-.4.2-.6.4-.2.2-.3.4-.4.7-.1.3-.1.6-.1 1v1.9h-.4v-4.7h.4v1.3l.3-.6c.1-.2.3-.3.4-.5.2-.1.3-.2.5-.3.2-.1.4-.1.6-.1v.7zM35.7 54.9c.1.2.2.4.4.6.1.2.3.3.5.4.2.1.4.1.6.1.3 0 .6-.1.8-.2.2-.1.4-.3.6-.5l.3.3c-.2.3-.5.5-.7.6-.3.2-.6.3-1 .3-.3 0-.5-.1-.8-.2-.3-.1-.5-.3-.7-.5-.2-.2-.3-.5-.5-.8-.1-.3-.2-.6-.2-1 0-.3.1-.6.2-.9.1-.3.2-.6.4-.8.2-.2.4-.4.6-.5.2-.1.5-.2.8-.2.3 0 .6.1.8.2.2.1.4.3.6.5.2.2.3.5.4.8.1.3.1.6.1 1v.2h-3.5c.2.1.2.3.3.6zm2.9-1.2c0-.2-.1-.5-.1-.7l-.3-.6c-.1-.2-.3-.3-.5-.4-.2-.1-.4-.2-.6-.2-.2 0-.4 0-.6.1-.2.1-.3.2-.5.4l-.3.6c-.1.2-.1.5-.2.7h3.1zM43.2 56.2v-.8l-.3.3c-.1.1-.2.2-.4.3-.1.1-.3.1-.5.2s-.4.1-.6.1-.4 0-.6-.1c-.2-.1-.4-.2-.5-.3-.2-.1-.3-.3-.4-.5-.1-.2-.1-.4-.1-.6 0-.2 0-.5.1-.6.1-.2.2-.3.4-.5l.6-.3c.2-.1.5-.1.8-.1.3 0 .6 0 .8.1.2 0 .4.1.6.1v-.2c0-.5-.1-.8-.4-1.1-.2-.2-.6-.4-1-.4-.3 0-.5 0-.7.1l-.6.3-.1-.4c.2-.1.5-.2.7-.3.2-.1.5-.1.8-.1.5 0 1 .2 1.3.5.3.3.5.8.5 1.4v2.9h-.4zm0-2.2c-.2 0-.4-.1-.6-.1-.2 0-.5-.1-.8-.1-.4 0-.8.1-1 .3-.2.2-.4.5-.4.8 0 .2 0 .3.1.5l.3.3c.1.1.2.2.4.2.1 0 .3.1.5.1s.4 0 .6-.1c.2-.1.4-.2.5-.3.1-.1.3-.3.3-.5.1-.2.1-.4.1-.6V54zM46.8 56.3h-.4c-.2 0-.3 0-.5-.1-.1 0-.3-.1-.4-.2-.1-.1-.2-.2-.3-.4-.1-.2-.1-.4-.1-.6v-3h-.6v-.4h.6v-1.5h.4v1.5H47v.4h-1.5v3c0 .3.1.6.2.7.2.1.4.2.6.2h.3c.1 0 .2-.1.3-.1v.4c.1 0 0 0-.1.1zM48.3 50.4v-.6h.5v.6h-.5zm.1 5.8v-4.7h.4v4.7h-.4zM52.2 56.3h-.3L50 51.6h.5l1.6 4.2 1.6-4.2h.5l-2 4.7zM55.3 54.9c.1.2.2.4.4.6.1.2.3.3.5.4s.4.1.6.1c.3 0 .6-.1.8-.2.2-.1.4-.3.6-.5l.3.3c-.2.3-.5.5-.7.6-.3.2-.6.3-1 .3-.3 0-.5-.1-.8-.2-.3-.1-.5-.3-.7-.5-.2-.2-.3-.5-.5-.8-.1-.3-.2-.6-.2-1 0-.3.1-.6.2-.9.1-.3.2-.6.4-.8.2-.2.4-.4.6-.5.2-.1.5-.2.8-.2.3 0 .6.1.8.2.2.1.4.3.6.5.2.2.3.5.4.8.1.3.1.6.1 1v.2H55c.1.1.2.3.3.6zm2.9-1.2c0-.2-.1-.5-.1-.7l-.3-.6c-.1-.2-.3-.3-.5-.4-.2-.1-.4-.2-.6-.2-.2 0-.4 0-.6.1-.2.1-.3.2-.5.4l-.3.6c-.1.2-.1.5-.2.7h3.1zM66.3 54.9c-.1.3-.3.6-.5.8-.2.2-.4.4-.7.5-.2.1-.5.2-.8.2-.2 0-.4 0-.6-.1-.2-.1-.3-.1-.5-.2-.1-.1-.3-.2-.4-.4-.1-.1-.2-.3-.3-.4v1h-.4v-6.7h.4v3c.1-.2.2-.3.3-.4.1-.1.2-.3.4-.4.1-.1.3-.2.5-.3.2-.1.4-.1.6-.1.3 0 .5.1.8.2.2.1.5.3.7.5.2.2.4.5.5.8.1.3.2.6.2 1s0 .7-.2 1zm-.2-1c0-.3 0-.6-.1-.8-.1-.2-.2-.5-.4-.6-.2-.2-.3-.3-.5-.4-.2-.1-.4-.1-.6-.1-.2 0-.4 0-.6.1-.2.1-.4.2-.6.4-.2.2-.3.4-.4.6-.1.2-.1.5-.1.8 0 .3 0 .6.1.8.1.2.2.5.4.6.2.2.3.3.6.4.2.1.4.1.6.1.2 0 .5 0 .7-.1.2-.1.4-.2.5-.4.1-.2.3-.4.4-.6-.1-.2 0-.5 0-.8zM70.9 56.2v-.9c-.1.3-.3.5-.6.7-.2.2-.6.3-.9.3-.3 0-.5 0-.7-.1-.2-.1-.4-.2-.5-.4-.1-.2-.3-.4-.3-.6-.1-.2-.1-.5-.1-.8v-2.8h.4v2.8c0 .5.1.9.3 1.2.2.3.6.4 1 .4.2 0 .4 0 .6-.1.2-.1.3-.2.5-.3s.2-.3.3-.5c.1-.2.1-.4.1-.7v-2.7h.4v4.7h-.5zM75.6 55.5c-.1.2-.2.3-.3.4s-.3.2-.5.3c-.2.1-.4.1-.6.1-.3 0-.6-.1-.9-.2-.3-.1-.6-.3-.8-.5l.2-.4c.2.2.5.3.7.5.3.1.5.2.8.2.3 0 .5-.1.7-.2.2-.2.3-.4.3-.6 0-.1 0-.2-.1-.3-.1-.1-.1-.2-.2-.3-.1-.1-.2-.1-.4-.2-.1 0-.3-.1-.4-.1-.2-.1-.3-.1-.5-.2s-.3-.1-.5-.2c-.1-.1-.3-.2-.3-.4-.1-.1-.1-.3-.1-.5s0-.4.1-.5c.1-.2.2-.3.3-.4.1-.1.3-.2.4-.3.2-.1.4-.1.6-.1.3 0 .5 0 .8.1.3.1.5.2.7.4l-.2.4c-.2-.1-.4-.3-.6-.3-.2-.1-.5-.1-.7-.1-.3 0-.5.1-.7.2-.2.2-.3.3-.3.6 0 .1 0 .2.1.3.1.1.2.2.3.2.1.1.2.1.4.2.1.1.3.1.4.2.2.1.3.1.5.2s.3.1.4.2c.1.1.2.2.3.4.1.1.1.3.1.5.1.1.1.3 0 .4zM77 50.4v-.6h.5v.6H77zm.1 5.8v-4.7h.4v4.7h-.4zM82.3 56.2v-2.8c0-.5-.1-.9-.3-1.2-.2-.3-.6-.4-1-.4-.2 0-.4 0-.6.1-.2.1-.3.2-.5.3-.1.1-.2.3-.3.5-.1.2-.1.4-.1.7v2.7h-.4v-4.7h.4v.9c.1-.3.3-.5.6-.7.2-.2.6-.3.9-.3.3 0 .5 0 .7.1.2.1.4.2.5.4.1.2.3.4.3.6.1.2.1.5.1.8V56h-.3zM84.5 54.9c.1.2.2.4.4.6.1.2.3.3.5.4.2.1.4.1.6.1.3 0 .6-.1.8-.2.2-.1.4-.3.6-.5l.3.3c-.2.3-.5.5-.7.6-.3.2-.6.3-1 .3-.3 0-.5-.1-.8-.2-.3-.1-.5-.3-.7-.5-.2-.2-.3-.5-.5-.8-.1-.3-.2-.6-.2-1 0-.3.1-.6.2-.9.1-.3.2-.6.4-.8.2-.2.4-.4.6-.5.2-.1.5-.2.8-.2.3 0 .6.1.8.2.2.1.4.3.6.5.2.2.3.5.4.8.1.3.1.6.1 1v.2h-3.5c.1.1.2.3.3.6zm2.9-1.2c0-.2-.1-.5-.1-.7l-.3-.6c-.1-.2-.3-.3-.5-.4-.2-.1-.4-.2-.6-.2-.2 0-.4 0-.6.1-.2.1-.3.2-.5.4l-.3.6c-.1.2-.1.5-.2.7h3.1zM91.7 55.5c-.1.2-.2.3-.3.4-.1.1-.3.2-.5.3-.2.1-.4.1-.6.1-.3 0-.6-.1-.9-.2s-.6-.3-.8-.5l.2-.4c.2.2.5.3.7.5.3.1.5.2.8.2.3 0 .5-.1.7-.2.2-.2.3-.4.3-.6 0-.1 0-.2-.1-.3-.1-.1-.1-.2-.2-.3-.1-.1-.2-.1-.4-.2-.1 0-.3-.1-.4-.1-.2-.1-.3-.1-.5-.2s-.3-.1-.5-.2c-.1-.1-.3-.2-.3-.4-.1-.1-.1-.3-.1-.5s0-.4.1-.5c.1-.2.2-.3.3-.4.1-.1.3-.2.4-.3.2-.1.4-.1.6-.1.3 0 .5 0 .8.1.3.1.5.2.7.4l-.2.4c-.2-.1-.4-.3-.6-.3-.2-.1-.5-.1-.7-.1-.3 0-.5.1-.7.2-.2.2-.3.3-.3.6 0 .1 0 .2.1.3.1.1.2.2.3.2.1.1.2.1.4.2.1.1.3.1.4.2.2.1.3.1.5.2s.3.1.4.2c.1.1.2.2.3.4s.1.3.1.5c.2.1.1.3 0 .4zM95.8 55.5c-.1.2-.2.3-.3.4-.1.1-.3.2-.5.3-.2.1-.4.1-.6.1-.3 0-.6-.1-.9-.2s-.6-.3-.8-.5l.2-.4c.2.2.5.3.7.5.3.1.5.2.8.2.3 0 .5-.1.7-.2.2-.2.3-.4.3-.6 0-.1 0-.2-.1-.3-.1-.1-.1-.2-.2-.3-.1-.1-.2-.1-.4-.2-.1 0-.3-.1-.4-.1-.2-.1-.3-.1-.5-.2s-.3-.1-.5-.2c-.1-.1-.3-.2-.3-.4-.1-.1-.1-.3-.1-.5s0-.4.1-.5c.1-.2.2-.3.3-.4.1-.1.3-.2.4-.3.2-.1.4-.1.6-.1.3 0 .5 0 .8.1.3.1.5.2.7.4l-.2.4c-.2-.1-.4-.3-.6-.3-.2-.1-.5-.1-.7-.1-.3 0-.5.1-.7.2-.2.2-.3.3-.3.6 0 .1 0 .2.1.3.1.1.2.2.3.2.1.1.2.1.4.2.1.1.3.1.4.2.2.1.3.1.5.2s.3.1.4.2c.1.1.2.2.3.4s.1.3.1.5c.1.1.1.3 0 .4zM100 54.9c.1.2.2.4.4.6.1.2.3.3.5.4.2.1.4.1.6.1.3 0 .6-.1.8-.2.2-.1.4-.3.6-.5l.3.3c-.2.3-.5.5-.7.6-.3.2-.6.3-1 .3-.3 0-.5-.1-.8-.2-.3-.1-.5-.3-.7-.5-.2-.2-.3-.5-.5-.8-.1-.3-.2-.6-.2-1 0-.3.1-.6.2-.9.1-.3.2-.6.4-.8.2-.2.4-.4.6-.5.2-.1.5-.2.8-.2.3 0 .6.1.8.2.2.1.4.3.6.5.2.2.3.5.4.8.1.3.1.6.1 1v.2h-3.5c.1.1.2.3.3.6zm2.9-1.2c0-.2-.1-.5-.1-.7l-.3-.6c-.1-.2-.3-.3-.5-.4s-.4-.2-.6-.2c-.2 0-.4 0-.6.1-.2.1-.3.2-.5.4l-.3.6c-.1.2-.1.5-.2.7h3.1zM107.4 56.1c-.3.2-.6.3-1 .3-.3 0-.6-.1-.9-.2-.3-.1-.5-.3-.7-.5-.2-.2-.3-.5-.5-.8-.1-.3-.2-.6-.2-.9 0-.3.1-.6.2-.9.1-.3.3-.6.5-.8.2-.2.4-.4.7-.5.3-.1.5-.2.9-.2.2 0 .4 0 .5.1.2 0 .3.1.5.2.1.1.3.2.4.3l.3.3-.3.3c-.2-.2-.4-.4-.6-.5-.2-.2-.5-.2-.8-.2-.2 0-.5.1-.7.2-.2.1-.4.2-.5.4-.2.2-.3.4-.4.6-.1.2-.1.5-.1.8 0 .3 0 .5.1.8.1.2.2.5.4.6.2.2.3.3.6.4.2.1.4.2.7.2.3 0 .6-.1.8-.2.2-.1.4-.3.6-.6l.3.3c-.3.1-.5.3-.8.5zM113.1 54.8c-.1.3-.3.6-.5.8-.2.2-.4.4-.7.5-.3.1-.6.2-.9.2s-.6-.1-.9-.2c-.3-.1-.5-.3-.7-.5-.2-.2-.3-.5-.5-.8-.1-.3-.2-.6-.2-.9 0-.3.1-.6.2-.9s.3-.6.5-.8c.2-.2.4-.4.7-.5.3-.1.6-.2.9-.2.3 0 .6.1.9.2.3.1.5.3.7.5.2.2.3.5.5.8.1.3.2.6.2.9-.1.3-.1.6-.2.9zm-.3-.9c0-.3 0-.5-.1-.8-.1-.2-.2-.5-.4-.6-.2-.2-.3-.3-.6-.4-.2-.1-.4-.2-.7-.2-.3 0-.5.1-.7.2-.2.1-.4.2-.6.4-.2.2-.3.4-.4.6-.1.2-.1.5-.1.8 0 .3 0 .5.1.8.1.2.2.5.4.6.2.2.3.3.6.4.2.1.4.2.7.2.3 0 .5-.1.7-.2.2-.1.4-.2.6-.4.2-.2.3-.4.4-.6 0-.3.1-.5.1-.8zM117.2 55.5c-.1.2-.2.3-.3.4-.1.1-.3.2-.5.3-.2.1-.4.1-.6.1-.3 0-.6-.1-.9-.2s-.6-.3-.8-.5l.2-.4c.2.2.5.3.7.5.3.1.5.2.8.2.3 0 .5-.1.7-.2.2-.2.3-.4.3-.6 0-.1 0-.2-.1-.3-.1-.1-.1-.2-.2-.3-.1-.1-.2-.1-.4-.2-.1 0-.3-.1-.4-.1-.2-.1-.3-.1-.5-.2s-.3-.1-.5-.2c-.1-.1-.3-.2-.3-.4-.1-.1-.1-.3-.1-.5s0-.4.1-.5c.1-.2.2-.3.3-.4.1-.1.3-.2.4-.3.2-.1.4-.1.6-.1.3 0 .5 0 .8.1.3.1.5.2.7.4l-.2.4c-.2-.1-.4-.3-.6-.3-.2-.1-.5-.1-.7-.1-.3 0-.5.1-.7.2-.2.2-.3.3-.3.6 0 .1 0 .2.1.3.1.1.2.2.3.2.1.1.2.1.4.2.1.1.3.1.4.2.2.1.3.1.5.2s.3.1.4.2c.1.1.2.2.3.4.1.1.1.3.1.5.1.1.1.3 0 .4zM120.4 56.4c-.2.5-.4.8-.6 1-.2.2-.5.3-.8.3-.2 0-.3 0-.4-.1-.1 0-.3-.1-.4-.2l.1-.4c.1.1.2.1.3.1h.4c.1 0 .2 0 .3-.1.1 0 .2-.1.3-.2.1-.1.2-.2.2-.3.1-.1.2-.3.2-.5l-2-4.6h.5l1.8 4.2 1.5-4.2h.4l-1.8 5zM125.9 55.5c-.1.2-.2.3-.3.4-.1.1-.3.2-.5.3-.2.1-.4.1-.6.1-.3 0-.6-.1-.9-.2s-.6-.3-.8-.5l.2-.4c.2.2.5.3.7.5.3.1.5.2.8.2.3 0 .5-.1.7-.2.2-.2.3-.4.3-.6 0-.1 0-.2-.1-.3-.1-.1-.1-.2-.2-.3-.1-.1-.2-.1-.4-.2-.1 0-.3-.1-.4-.1-.2-.1-.3-.1-.5-.2s-.3-.1-.5-.2c-.1-.1-.3-.2-.3-.4-.1-.1-.1-.3-.1-.5s0-.4.1-.5c.1-.2.2-.3.3-.4.1-.1.3-.2.4-.3.2-.1.4-.1.6-.1.3 0 .5 0 .8.1.3.1.5.2.7.4l-.2.4c-.2-.1-.4-.3-.6-.3-.2-.1-.5-.1-.7-.1-.3 0-.5.1-.7.2-.2.2-.3.3-.3.6 0 .1 0 .2.1.3.1.1.2.2.3.2.1.1.2.1.4.2.1.1.3.1.4.2.2.1.3.1.5.2s.3.1.4.2c.1.1.2.2.3.4s.1.3.1.5c.1.1.1.3 0 .4zM129 56.3h-.4c-.2 0-.3 0-.5-.1-.1 0-.3-.1-.4-.2-.1-.1-.2-.2-.3-.4-.1-.2-.1-.4-.1-.6v-3h-.6v-.4h.6v-1.5h.4v1.5h1.5v.4h-1.5v3c0 .3.1.6.2.7.2.1.4.2.6.2h.3c.1 0 .2-.1.3-.1v.4c.1 0 0 0-.1.1zM130.8 54.9c.1.2.2.4.4.6.1.2.3.3.5.4.2.1.4.1.6.1.3 0 .6-.1.8-.2.2-.1.4-.3.6-.5l.3.3c-.2.3-.5.5-.7.6-.3.2-.6.3-1 .3-.3 0-.5-.1-.8-.2-.3-.1-.5-.3-.7-.5-.2-.2-.3-.5-.5-.8-.1-.3-.2-.6-.2-1 0-.3.1-.6.2-.9.1-.3.2-.6.4-.8.2-.2.4-.4.6-.5.2-.1.5-.2.8-.2.3 0 .6.1.8.2.2.1.4.3.6.5.2.2.3.5.4.8.1.3.1.6.1 1v.2h-3.5c.1.1.2.3.3.6zm2.9-1.2c0-.2-.1-.5-.1-.7l-.3-.6c-.1-.2-.3-.3-.5-.4-.2-.1-.4-.2-.6-.2-.2 0-.4 0-.6.1-.2.1-.3.2-.5.4l-.3.6c-.1.2-.1.5-.2.7h3.1zM141.3 56.2v-2.8c0-.5-.1-.9-.3-1.2-.2-.3-.5-.4-.9-.4-.2 0-.3 0-.5.1s-.3.2-.4.3c-.1.1-.2.3-.3.5-.1.2-.1.4-.1.7v2.7h-.4v-2.8c0-.5-.1-.9-.3-1.1-.2-.3-.5-.4-.9-.4-.2 0-.4 0-.5.1-.2.1-.3.2-.4.4-.1.2-.2.3-.3.5-.1.2-.1.4-.1.7v2.7h-.4v-4.7h.4v.8c.1-.1.1-.2.2-.4l.3-.3c.1-.1.2-.2.4-.2.1-.1.3-.1.5-.1s.4 0 .5.1c.2.1.3.1.4.2l.3.3c.1.1.2.2.2.4.1-.1.1-.3.2-.4l.3-.3c.1-.1.3-.2.4-.2.2-.1.3-.1.5-.1s.5 0 .7.1c.2.1.4.2.5.4l.3.6c.1.2.1.5.1.8V56h-.4z"/></g></svg><svg width="66" height="66" viewBox="-1 -1 66 66" id="comment" x="205.7" xmlns="http://www.w3.org/2000/svg"><path fill="#60F" d="M61.1 47l-3.9-1.5c-.1-.1-.2-.3-.2-.5v-1.8c.3-.3.6-.6.9-1 1.4-1.8 2.1-4.2 2.1-6.8V33l.4-1c.4-1.1.6-2.4.6-3.6v-6.6c0-.7-.4-1.3-.9-1.3h-9c-3.3 0-5.9 3.6-5.9 8.1v.1c0 1 .2 2.1.5 3l.5 1.3v2.1c0 3.3 1.2 6.3 3 8.1V45c0 .3 0 .4-.8.7l-1.9.7-5.5-2.7c0-.4-.1-.7-.3-1L39 40.2V36c.2-.2.4-.4.5-.6 2.2-2.8 3.5-6.8 3.5-10.9v-3.4c.7-2 1-4.1 1-6.2V1.3c0-.7-.4-1.3-1-1.3H29c-4.9 0-9 5.5-9 12.2v2.7c0 2.1.3 4.2 1 6.2V24c0 4.8 1.6 9.1 4 11.9v4.3l-1.7 2.5c-.2.3-.3.6-.3 1l-5.8 2.9c-.4.2-.8.5-1.2.8l-.9-.6c2.7-1.6 3.6-3.8 3.6-4 .1-.4.1-.8 0-1.1-.7-1.8-.8-5.2-.8-7.9 0-.9 0-1.8-.1-2.5-.3-6.1-3.7-10.7-8-10.7s-7.6 4.6-8 10.7c0 .8-.1 1.6-.1 2.5-.1 2.7-.1 6.1-.8 7.9.1.3.1.8.2 1.1 0 .1.9 2.4 3.6 4l-2.5 1.7C.8 49.4 0 51.2 0 53.3v9.4c0 .7.4 1.3.9 1.3s.9-.6.9-1.3v-9.4c0-1.1.4-2 1.1-2.5L6 48.7 7.2 50C8 51 9 51.5 10 51.5c1 0 2-.5 2.7-1.5l1.1-1.4 1 .7c-.5 1-.8 2.3-.8 3.6v9.8c0 .7.4 1.3.9 1.3s.9-.6.9-1.3v-9.8c0-1.8.8-3.3 2-3.9l6.1-3 2.5 5.2c.3.7.8 1.1 1.4 1.2h.2c.5 0 1-.3 1.4-.8l1.5-2.1v13.3c0 .7.4 1.3.9 1.3s.9-.6.9-1.3V49.4l1.5 2.1c.4.5.9.8 1.4.8h.2c.6-.1 1.1-.5 1.4-1.2L40 46l6.1 3c1.2.6 2 2.2 2 3.9v9.8c0 .7.4 1.3.9 1.3s.9-.6.9-1.3v-9.8c0-1.8-.5-3.4-1.4-4.7l.2-.1c.2-.1.6-.2.9-.4L52 51v11.8c0 .7.4 1.3.9 1.3s.9-.6.9-1.3V51l2.4-3.2c.1.1.3.2.4.2l3.9 1.5c.9.3 1.5 1.5 1.5 2.7v10.6c0 .7.4 1.3.9 1.3s.9-.6.9-1.3V52.2c.2-2.4-1-4.6-2.7-5.2zM6 44.7c-1.8-.9-2.6-2-3-2.6.3-.9.4-2 .5-3.1.5 1.7 1.4 3.1 2.5 4.2v1.5zm5.4 3.5c-.8 1-2.1 1-2.9 0l-.9-1.1c.1-.4.2-.8.2-1.2v-1.4c.7.3 1.3.4 2.1.4.7 0 1.4-.2 2.1-.4v1.4c0 .4.1.9.2 1.2l-.8 1.1zM10 42.3c-2.8 0-5.1-3.1-5.1-6.9 0-.7-.4-1.3-.9-1.3h-.2v-.3c0-.9 0-1.7.1-2.4.1-2.3.8-4.4 1.9-6C6.9 23.9 8.4 23 10 23s3.1.9 4.2 2.4 1.8 3.7 1.9 6c0 .7.1 1.5.1 2.4v.2c-1-2.1-2.6-3.7-4.6-4.6-1.9-.8-3.5-.8-3.6-.8-.2 0-.5.1-.6.4l-1.7 2.4c-.4.5-.3 1.3 0 1.8.4.5 1 .5 1.3 0l1.4-2c1.2.1 5.1.7 6.6 5.2-.4 3.4-2.5 5.9-5 5.9zm3.9 2.4v-1.5c1.1-1 2-2.5 2.5-4.2.1 1.1.3 2.1.5 3.1-.4.6-1.2 1.8-3 2.6zm9-20.7v-3.2c0-.2 0-.4-.1-.6-.6-1.7-.9-3.5-.9-5.4v-2.7c0-5.3 3.2-9.6 7.1-9.6h13.1v12.4c0 1.9-.3 3.7-.9 5.4-.1.2-.1.4-.1.6v3.6c0 3.5-1 6.7-2.9 9-.2.3-.5.6-.7.8-1.7 1.8-3.9 2.7-6.1 2.5-4.7-.4-8.5-6-8.5-12.8zm5.3 25.7c-.1 0-.1 0 0 0l-3-6 .9-1.3 4.4 4.1-2.3 3.2zm3.8-4.9l-5.1-4.7v-2.4c1.3 1 2.8 1.6 4.3 1.7h.7c1.8 0 3.5-.6 5.1-1.7V40l-5 4.8zm3.9 4.9c-.1.1-.1 0 0 0l-2.4-3.2 4.4-4.1.9 1.3-2.9 6zM53 48.6l-2.1-2.9c0-.2.1-.5.1-.8v-.5c.6.3 1.2.4 1.9.4h.2c.7 0 1.4-.1 2.1-.4v.6c0 .3 0 .5.1.7L53 48.6zm3.6-8.2c-1 1.3-2.3 2-3.7 1.9-2.7-.1-4.9-3.3-4.9-7.2v-2.4c0-.2 0-.4-.1-.6l-.6-1.6c-.2-.5-.3-1.2-.3-1.8v-.1c0-3.1 1.8-5.6 4.1-5.6h8.1v5.3c0 .9-.1 1.7-.4 2.5l-.5 1.3c-.1.2-.1.4-.1.6v2.7c-.1 1.9-.6 3.7-1.6 5z"/></svg><svg id="facebook" data-name="Layer 1" width="23.23" height="44.01" viewBox="-1 -1 23.23 44.01" x="119.78" y="59.7" xmlns="http://www.w3.org/2000/svg"><defs><style>.ccls-1{fill:#fff}</style></defs><title>facebook</title><path class="ccls-1" d="M21.23.31V7H17.4a3.55 3.55 0 0 0-2.85.91 4.26 4.26 0 0 0-.74 2.72v4.77H21l-1 7.47h-6.19V42H6.27V22.85H0v-7.47h6.27V9.85q0-4.69 2.55-7.28A9 9 0 0 1 15.63 0a39.57 39.57 0 0 1 5.6.31z"/></svg><svg id="fire" data-name="Layer 1" width="58" height="66" viewBox="-1 -1 58 66" y="109.7" xmlns="http://www.w3.org/2000/svg"><defs><style>.dcls-1{fill:#d4953d}</style></defs><title>Untitled-2</title><path class="dcls-1" d="M16 0C24 16 0 24 0 40s16 24 16 24C8.16 48.16 32 40 32 24S16 0 16 0zm24 24c8 16-16 24-16 40h24c3.2 0 8-4 8-16 0-16-16-24-16-24z"/></svg><svg width="66" height="66" viewBox="-1 -1 66 66" id="globe" x="58" y="109.7" xmlns="http://www.w3.org/2000/svg"><path fill="#0C6" d="M59.7 12.8c-2.4 0-4.3 1.9-4.3 4.3s1.9 4.3 4.3 4.3 4.3-1.9 4.3-4.3-1.9-4.3-4.3-4.3zm0 6.4c-1.2 0-2.1-1-2.1-2.1 0-1.2 1-2.1 2.1-2.1s2.1 1 2.1 2.1c.1 1.1-.9 2.1-2.1 2.1zM4.3 48C1.9 48 0 49.9 0 52.3s1.9 4.3 4.3 4.3 4.3-1.9 4.3-4.3-2-4.3-4.3-4.3zm0 6.4c-1.2 0-2.1-1-2.1-2.1s1-2.1 2.1-2.1c1.2 0 2.1 1 2.1 2.1s-1 2.1-2.1 2.1z"/><path fill="#0C6" d="M57.7 14.1l-9.2-4.4c-.5-.3-1.2 0-1.4.5-.3.5 0 1.2.5 1.4l9.2 4.4c.1.1.3.1.5.1.4 0 .8-.2 1-.6.1-.5-.1-1.1-.6-1.4zM48 55.5c-2.4 0-4.3 1.9-4.3 4.3S45.6 64 48 64s4.3-1.9 4.3-4.3-1.9-4.2-4.3-4.2zm0 6.4c-1.2 0-2.1-1-2.1-2.1s1-2.1 2.1-2.1 2.1 1 2.1 2.1-.9 2.1-2.1 2.1z"/><path fill="#0C6" d="M45.9 56.8l-9.2-4.4c-.5-.3-1.2 0-1.4.5-.3.5 0 1.2.5 1.4l9.2 4.4c.1.1.3.1.5.1.4 0 .8-.2 1-.6.2-.5 0-1.1-.6-1.4zM32 28.8c-2.4 0-4.3 1.9-4.3 4.3s1.9 4.3 4.3 4.3 4.3-1.9 4.3-4.3-1.9-4.3-4.3-4.3zm0 6.4c-1.2 0-2.1-1-2.1-2.1 0-1.2 1-2.1 2.1-2.1 1.2 0 2.1 1 2.1 2.1s-.9 2.1-2.1 2.1z"/><path fill="#0C6" d="M30.1 30.3L23 24.8c-.5-.4-1.1-.3-1.5.2-.4.5-.3 1.1.2 1.5l7.1 5.5c.2.2.4.2.7.2.3 0 .6-.1.8-.4.4-.5.3-1.2-.2-1.5zM51.2 27.7c-6.5 0-11.7 5.3-11.7 11.7s5.3 11.7 11.7 11.7 11.7-5.3 11.7-11.7-5.2-11.7-11.7-11.7zm0 21.4c-5.3 0-9.6-4.3-9.6-9.6s4.3-9.6 9.6-9.6 9.6 4.3 9.6 9.6-4.3 9.6-9.6 9.6z"/><path fill="#0C6" d="M51.2 32c-2.4 0-4.3 1.9-4.3 4.3s1.9 4.3 4.3 4.3 4.3-1.9 4.3-4.3-1.9-4.3-4.3-4.3zm0 6.4c-1.2 0-2.1-1-2.1-2.1 0-1.2 1-2.1 2.1-2.1 1.2 0 2.1 1 2.1 2.1s-.9 2.1-2.1 2.1zM54.3 42.7h-6.2c-1.8 0-3.3 1.4-3.3 3.2v2.8c0 .4.2.7.5.9 1.8 1 3.8 1.6 5.9 1.6s4.1-.5 5.9-1.6c.3-.2.5-.5.5-.9v-2.8c0-1.8-1.5-3.2-3.3-3.2zm1.2 5.4c-2.7 1.3-5.9 1.3-8.5 0v-2.2c0-.6.5-1.1 1.2-1.1h6.2c.6 0 1.2.5 1.2 1.1l-.1 2.2zM25.6 40.5c-6.5 0-11.7 5.3-11.7 11.7S19.1 64 25.6 64s11.7-5.3 11.7-11.7-5.2-11.8-11.7-11.8zm0 21.4c-5.3 0-9.6-4.3-9.6-9.6s4.3-9.6 9.6-9.6 9.6 4.3 9.6 9.6-4.3 9.6-9.6 9.6z"/><path fill="#0C6" d="M25.6 44.8c-2.4 0-4.3 1.9-4.3 4.3s1.9 4.3 4.3 4.3 4.3-1.9 4.3-4.3-1.9-4.3-4.3-4.3zm0 6.4c-1.2 0-2.1-1-2.1-2.1 0-1.2 1-2.1 2.1-2.1 1.2 0 2.1 1 2.1 2.1s-.9 2.1-2.1 2.1zM28.7 55.5h-6.2c-1.8 0-3.3 1.4-3.3 3.2v2.8c0 .4.2.7.5.9 1.8 1 3.8 1.6 5.9 1.6s4.1-.5 5.9-1.6c.3-.2.5-.5.5-.9v-2.8c0-1.8-1.5-3.2-3.3-3.2zm1.2 5.4c-2.7 1.3-5.9 1.3-8.5 0v-2.2c0-.6.5-1.1 1.2-1.1h6.2c.6 0 1.2.5 1.2 1.1l-.1 2.2zM11.7 13.9C5.3 13.9 0 19.1 0 25.6s5.3 11.7 11.7 11.7S23.4 32 23.4 25.6c.1-6.5-5.2-11.7-11.7-11.7zm0 21.3c-5.3 0-9.6-4.3-9.6-9.6S6.4 16 11.7 16s9.6 4.3 9.6 9.6-4.3 9.6-9.6 9.6z"/><path fill="#0C6" d="M11.7 18.1c-2.4 0-4.3 1.9-4.3 4.3s1.9 4.3 4.3 4.3 4.3-1.9 4.3-4.3-1.9-4.3-4.3-4.3zm0 6.4c-1.2 0-2.1-1-2.1-2.1s1-2.1 2.1-2.1c1.2 0 2.1 1 2.1 2.1s-.9 2.1-2.1 2.1zM14.8 28.8H8.6c-1.8 0-3.3 1.4-3.3 3.2v2.8c0 .4.2.7.5.9 1.8 1 3.8 1.6 5.9 1.6s4.1-.5 5.9-1.6c.3-.2.5-.5.5-.9V32c0-1.8-1.4-3.2-3.3-3.2zm1.2 5.4c-2.7 1.3-5.9 1.3-8.5 0V32c0-.6.5-1.1 1.2-1.1h6.2c.6 0 1.2.5 1.2 1.1l-.1 2.2zM37.3 0c-6.5 0-11.7 5.3-11.7 11.7s5.3 11.7 11.7 11.7S49 18.1 49 11.7C49.1 5.3 43.8 0 37.3 0zm0 21.3c-5.3 0-9.6-4.3-9.6-9.6s4.3-9.6 9.6-9.6 9.6 4.3 9.6 9.6-4.3 9.6-9.6 9.6z"/><path fill="#0C6" d="M37.3 4.3c-2.4 0-4.3 1.9-4.3 4.3s1.9 4.3 4.3 4.3 4.3-1.9 4.3-4.3-1.9-4.3-4.3-4.3zm0 6.4c-1.2 0-2.1-1-2.1-2.1 0-1.2 1-2.1 2.1-2.1s2.1 1 2.1 2.1c.1 1.1-.9 2.1-2.1 2.1zM40.4 14.9h-6.2c-1.8 0-3.3 1.4-3.3 3.2V21c0 .4.2.7.5.9 1.8 1 3.8 1.6 5.9 1.6s4.1-.5 5.9-1.6c.3-.2.5-.5.5-.9v-2.8c0-1.8-1.4-3.3-3.3-3.3zm1.2 5.4c-2.7 1.3-5.9 1.3-8.5 0v-2.2c0-.6.5-1.1 1.2-1.1h6.2c.6 0 1.2.5 1.2 1.1l-.1 2.2zM27.5 11c-.4-.4-1.1-.5-1.5-.1l-7.4 6.3c-.4.4-.5 1.1-.1 1.5.2.2.5.4.8.4.2 0 .5-.1.7-.3l7.4-6.3c.4-.3.5-1 .1-1.5z"/><path fill="#0C6" d="M51 28.2l-6.4-8.5c-.4-.5-1-.6-1.5-.2-.5.4-.6 1-.2 1.5l6.4 8.5c.2.3.5.4.9.4.2 0 .4-.1.6-.2.4-.4.5-1.1.2-1.5zM42.2 43c-.4-.5-1-.6-1.5-.2l-6 4.5c-.5.4-.6 1-.2 1.5.2.3.5.4.9.4.2 0 .4-.1.6-.2l6-4.5c.5-.4.6-1 .2-1.5zM14.9 51.2H7.5c-.6 0-1.1.5-1.1 1.1s.5 1.1 1.1 1.1H15c.6 0 1.1-.5 1.1-1.1s-.6-1.1-1.2-1.1zM11.7 0C9.4 0 7.5 1.9 7.5 4.3s1.9 4.3 4.3 4.3 4.3-1.9 4.3-4.3C16 1.9 14.1 0 11.7 0zm0 6.4c-1.2 0-2.1-1-2.1-2.1 0-1.2 1-2.1 2.1-2.1 1.2 0 2.1 1 2.1 2.1.1 1.1-.9 2.1-2.1 2.1z"/><path fill="#0C6" d="M11.7 6.4c-.6 0-1.1.5-1.1 1.1V15c0 .6.5 1.1 1.1 1.1s1.1-.5 1.1-1.1V7.5c0-.6-.5-1.1-1.1-1.1z"/></svg><svg id="instagram" data-name="Layer 1" width="44.01" height="44.01" viewBox="-1 -1 44.01 44.01" y="175.7" xmlns="http://www.w3.org/2000/svg"><defs><style>.fcls-1{fill:#fff}</style></defs><title>instagram</title><path class="fcls-1" d="M37.25 35.49V17.77h-3.69a11.77 11.77 0 0 1 .57 3.58 12.12 12.12 0 0 1-1.75 6.36 12.76 12.76 0 0 1-4.76 4.59 13.13 13.13 0 0 1-6.56 1.7 12.78 12.78 0 0 1-9.19-3.71 12 12 0 0 1-3.83-9 11.77 11.77 0 0 1 .49-3.56H4.68v17.76a1.63 1.63 0 0 0 1.6 1.67h29.3a1.63 1.63 0 0 0 1.17-.47 1.59 1.59 0 0 0 .5-1.2zm-7.77-14.57A7.75 7.75 0 0 0 27 15.14a8.28 8.28 0 0 0-6-2.4 8.25 8.25 0 0 0-5.91 2.39 7.75 7.75 0 0 0-2.47 5.78 7.75 7.75 0 0 0 2.47 5.79A8.25 8.25 0 0 0 21 29.1a8.28 8.28 0 0 0 6-2.4 7.75 7.75 0 0 0 2.48-5.78zm7.76-9.84V6.56a1.84 1.84 0 0 0-.54-1.31 1.8 1.8 0 0 0-1.31-.56h-4.78a1.8 1.8 0 0 0-1.31.56 1.84 1.84 0 0 0-.54 1.31v4.52A1.87 1.87 0 0 0 30.6 13h4.8a1.87 1.87 0 0 0 1.85-1.89zM42 5.39v31.23A5.41 5.41 0 0 1 36.62 42H5.39a5.19 5.19 0 0 1-3.8-1.59A5.19 5.19 0 0 1 0 36.62V5.39a5.19 5.19 0 0 1 1.59-3.8A5.19 5.19 0 0 1 5.39 0h31.23a5.19 5.19 0 0 1 3.8 1.59A5.19 5.19 0 0 1 42 5.39z"/></svg><svg width="66" height="50" viewBox="-1 -1 66 50" id="mail" y="59.7" xmlns="http://www.w3.org/2000/svg"><path fill="#06C" d="M63.1 12.6l-4.1-.4c-.6-.1-1-.5-.9-.9 0-.2.2-.4.4-.5l3.3-1.9c.5-.3.6-.8.2-1.1L58.2 4c-.4-.4-1-.4-1.5-.2l-3.3 1.9c-.5.3-1.1.2-1.5-.2-.2-.2-.2-.4-.2-.6l.6-3.1c.1-.4-.3-.8-.9-.9L45.1.2c-.6-.1-1.1.2-1.2.7L43.3 4c-.1.4-.6.7-1.2.7-.3 0-.5-.1-.7-.3l-2.5-2.5c-.4-.4-1-.4-1.5-.2l-3.2 1.8c-1.4-.1-2.9-.1-4.3 0-9.5.8-16.9 6.4-17.8 13.6 0 .2 0 .4-.1.7h-.3c-.5 0-.9.3-1 .6L9.9 21 7 19.5c-.4-.2-1-.2-1.4.1L2.4 22c-.4.3-.4.7-.1 1l2 2.2-3.5.6c-.5 0-.8.3-.8.7v3.2c0 .4.4.7.8.8l3.5.5-2 2.2c-.3.3-.2.7.1 1l3.2 2.4c.4.3 1 .3 1.4.1l2.9-1.5.7 2.6c.1.4.5.6 1 .6h4.2c.5 0 .9-.3 1-.6l.7-2.6 2.9 1.5c.4.2 1 .2 1.4-.1l1.6-1.2v2.3c0 1.1.8 2.2 2.1 2.7v4.4c0 1.8 1.9 3.2 4.2 3.2h4.2c2.3 0 4.2-1.4 4.2-3.2v-4.4c1.3-.6 2.1-1.6 2.1-2.7v-3.2c0-1.3 1-2.6 2.5-3.3.9-.4 1.7-.9 2.5-1.4l-1.4-1.2c-.7.5-1.4.9-2.2 1.3-2.1 1-3.4 2.7-3.4 4.6v3.2c0 .9-1 1.6-2.1 1.6h-8.5c-1.2 0-2.1-.7-2.1-1.6v-3.2c0-1.8-1.3-3.5-3.4-4.5-8.4-4-11-12.3-5.7-18.6C20 7.4 25.7 5 31.9 5v.1c0 .2 0 .4.2.6l2.5 2.5c.3.3.3.6.1.9-.2.3-.6.4-1.1.4L29.4 9c-.6-.1-1.1.2-1.2.7l-.9 4.7c-.1.4.3.8.9.9l4.1.4c.6.1 1 .5.9.9 0 .2-.2.4-.4.5L29.5 19c-.5.3-.6.8-.2 1.1l3.8 3.8c.4.4 1 .4 1.5.2l3.3-1.9c.5-.3 1.1-.2 1.5.2.2.2.2.4.2.6l-.6 3.1c0 .5.4.9 1 .9l6.3.7h.1c.5 0 1-.3 1.1-.7l.6-3.1c.1-.4.6-.7 1.2-.7.3 0 .5.1.7.3l2.5 2.5c.4.4 1 .4 1.5.2l5.1-2.9c.5-.3.6-.8.2-1.1l-2.5-2.5c-.3-.3-.3-.6-.1-.9.2-.3.6-.4 1.1-.4l4.1.4c.6.1 1.1-.2 1.2-.7l.9-4.7c.1-.3-.3-.7-.9-.8zM27.9 40.8h8.5v1.6h-8.5v-1.6zm0 3.2h8.5v.8c0 .9-1 1.6-2.1 1.6H30c-1.2 0-2.1-.7-2.1-1.6V44zm-8.5-13.7c.6.4 1.2.7 1.8 1 1 .5 1.8 1.2 2.1 2L21.1 35l-2.2-1.1c-1-.5-2.3-.3-3 .4-.2.2-.3.4-.3.6l-.6 2h-2.5l-.6-2c-.2-.9-1.4-1.4-2.5-1.2-.3 0-.5.1-.8.2L6.5 35l-1.9-1.4 1.5-1.7c.7-.7.4-1.7-.5-2.2-.2-.1-.5-.2-.8-.2L2.1 29v-1.9l2.6-.4c1.1-.2 1.9-1 1.6-1.9l-.3-.6-1.5-1.7 1.9-1.4 2.2 1.1c1 .5 2.3.3 3-.4.2-.2.3-.4.3-.6l.2-.7c.2.9.5 1.8.8 2.7-3.5.3-6 2.7-5.6 5.3.4 2.6 3.6 4.5 7.1 4.2 2.2 0 4.1-1 5-2.4zm-1.6-1.1c-.8 1.7-3.2 2.5-5.4 1.9-2.2-.6-3.4-2.4-2.6-4.1.6-1.3 2.2-2.1 4-2.1 1 1.6 2.4 3 4 4.3zm43.3-12l-3.1-.3c-1.7-.2-3.4.7-3.6 2-.1.6.1 1.3.6 1.8l1.9 1.9-3.4 1.9-1.9-1.9c-1.1-1.1-3.1-1.3-4.5-.5-.7.4-1.1.9-1.2 1.6l-.4 2.3-4.2-.5.4-2.3c.2-1.3-1-2.5-2.7-2.7-.8-.1-1.7.1-2.4.5l-2.5 1.4-2.5-2.5 2.5-1.4c1.4-.8 1.7-2.3.6-3.3-.5-.5-1.3-.8-2.1-.9l-3.1-.3.6-3.2 3.1.3c1.7.2 3.4-.7 3.6-2 .1-.6-.1-1.3-.6-1.8l-1.9-1.9 3.4-1.9 1.9 1.9c1.1 1.1 3.1 1.3 4.5.5.7-.4 1.1-.9 1.2-1.6l.4-2.3 4.3.3-.4 2.3c-.2 1.3 1 2.5 2.7 2.7.8.1 1.7-.1 2.4-.5l2.5-1.4 2.5 2.5-2.5 1.4c-1.4.8-1.7 2.3-.6 3.3.5.5 1.3.8 2.1.9l3.1.3-.7 3.4z"/><path fill="#06C" d="M45.4 7.6c-4.7 0-8.5 2.9-8.5 6.4s3.8 6.4 8.5 6.4 8.5-2.9 8.5-6.4c0-3.6-3.8-6.4-8.5-6.4zm0 11.1c-3.5 0-6.4-2.1-6.4-4.8s2.9-4.8 6.4-4.8 6.4 2.1 6.4 4.8c0 2.7-2.9 4.8-6.4 4.8zM30.8 35.3h2.1v2.4h-2.1zM27.2 27.4C20.7 25.5 17.4 20 20 15c1-1.9 2.8-3.5 5.1-4.6L24 9.1c-6.9 3.3-9 10.2-4.7 15.4 1.7 2 4.2 3.6 7.2 4.4 2.6.8 4.4 2.6 4.4 4.7H33c-.1-2.7-2.3-5.2-5.8-6.2zM52.1 29.7h7.4v1.6h-7.4zM50.3 35.1l1.4-1.3 6.3 4-1.3 1.3zM45.7 36h2.1v5.6h-2.1zM.8 13.8l8.5-1.6.5 1.5-8.5 1.6zM2.6 5.6l1.2-1.3 7.4 4L10 9.6zM11.7.4l2-.4 2.2 6.4-2 .4z"/></svg><svg width="66" height="66" viewBox="-1 -1 66 66" id="rain" x="205.7" y="66" xmlns="http://www.w3.org/2000/svg"><path fill="#D3D3D3" d="M17 0C11.2 0 6.5 4.2 6.5 9.3c0 3.1 1.8 6 4.7 7.7v3.6h11.7V17c2.9-1.7 4.7-4.6 4.7-7.7C27.6 4.2 22.9 0 17 0zm0 11.4c-1.3 0-2.3-.9-2.3-2.1s1.1-2.1 2.3-2.1 2.3.9 2.3 2.1-1 2.1-2.3 2.1z"/><path fill="#0C6" d="M64 0l-6.8 4.5-6.9 14.1h-5.5l-2.2-4.1H44c2.6 0 4.7-1.9 4.7-4.1V6.2H51V0h-7v6.2h2.3v4.1c0 1.1-1.1 2.1-2.3 2.1h-2.5l-3-5.7 3.6-1.6L30.4.7 27 11.3l3.6-1.6 1.4 2.8c-2.4.1-4.4 1.9-4.4 4.1v2.1h-9.4v-6.4c1.4-.4 2.3-1.6 2.3-2.9 0-1.7-1.6-3.1-3.5-3.1s-3.5 1.4-3.5 3.1c0 1.3 1 2.5 2.3 2.9v6.4H8.3l-.2.8c-.5 2.5-.6 5.2-.1 7.9L0 39.9l8.9 1.8v13h11.7V64h28.2V49.6c8.1-5.1 12.9-13.3 12.9-22.1v-3.8c0-1.4-.2-2.9-.5-4.3l-.2-.8h-2.3L64 7.4V0zM46.4 2.1h2.3v2.1h-2.3V2.1zM17 8.3c.6 0 1.2.5 1.2 1 0 .6-.5 1-1.2 1s-1.2-.5-1.2-1c.1-.6.6-1 1.2-1zm44.7-2.7L60.4 5l1.3-.9v1.5zm-19.5 13h-4.5l-2.1-4.1H40l2.2 4.1zM30.6 7.3l1.2-3.8 4.7 1.8-1.1.5 3.5 6.7h-4.4L31.6 7l-1 .3zm-.6 9.2c0-1.1 1.1-2.1 2.3-2.1h.7l2.1 4.1H30v-2zm29.3 7.2v3.8c0 8.3-4.6 16-12.4 20.7l-.5.3v13.4H22.9v-9.3H11.2V40l-7.6-1.5 6.9-10.8-.1-.4c-.4-2.3-.5-4.5-.1-6.7H59c.2 1.1.3 2.1.3 3.1zm-6.4-5.1l5.9-12 2.6 1.1-5.1 10.9h-3.4z"/><path fill="#0C6" d="M19.4 28.9c3.2 0 5.9-2.3 5.9-5.2H23c0 1.7-1.6 3.1-3.5 3.1S16 25.4 16 23.7h-2.3c-.2 2.9 2.5 5.2 5.7 5.2z"/></svg><svg width="66" height="66" viewBox="-1 -1 66 66" id="star" x="124" y="109.7" xmlns="http://www.w3.org/2000/svg"><g fill="#60F"><path d="M48.5 21c0-9.3-7.4-16.8-16.5-16.8S15.5 11.7 15.5 21 22.9 37.8 32 37.8 48.5 30.2 48.5 21zM32 35.7c-8 0-14.5-6.6-14.5-14.7S24 6.3 32 6.3 46.5 12.9 46.5 21 40 35.7 32 35.7zM50.6 19.9h2.1V22h-2.1zM54.7 19.9h2.1V22h-2.1zM7.2 19.9h2.1V22H7.2zM11.4 19.9h2.1V22h-2.1zM31 39.9h2.1V42H31zM31 0h2.1v2.1H31z"/><path d="M50.3 18l2-.3C50.9 8.7 44 1.7 35.2.3l-.3 2.1c8 1.2 14.2 7.5 15.4 15.6zM29.1 2.4L28.8.3C19.9 1.7 13 8.7 11.6 17.7l2 .3c1.3-8.1 7.5-14.4 15.5-15.6zM29.1 39.6c-8-1.3-14.2-7.6-15.4-15.6l-2 .3c1.4 9 8.3 16 17.1 17.4l.3-2.1zM50.3 24c-1.3 8.1-7.4 14.4-15.4 15.6l.3 2.1c8.8-1.4 15.7-8.4 17.1-17.4l-2-.3zM59.9 53.6v-4.3H33v-5.2h-2v5.2H4.1v4.3c-2.3.5-4.1 2.6-4.1 5.2C0 61.6 2.3 64 5.2 64s5.2-2.4 5.2-5.2c0-2.5-1.8-4.7-4.1-5.1v-2.2H31v2.2c-2.4.5-4.1 2.6-4.1 5.1 0 2.9 2.3 5.2 5.2 5.2s5.2-2.4 5.2-5.2c0-2.5-1.8-4.7-4.1-5.1v-2.2H58v2.2c-2.4.5-4.1 2.6-4.1 5.1 0 2.9 2.3 5.2 5.2 5.2s5.2-2.4 5.2-5.2c-.3-2.6-2.1-4.7-4.4-5.2zM8.3 58.8c0 1.7-1.4 3.1-3.1 3.1s-3.1-1.4-3.1-3.1 1.4-3.1 3.1-3.1 3.1 1.3 3.1 3.1zm26.8 0c0 1.7-1.4 3.1-3.1 3.1-1.7 0-3.1-1.4-3.1-3.1s1.4-3.1 3.1-3.1c1.7-.1 3.1 1.3 3.1 3.1zm23.7 3.1c-1.7 0-3.1-1.4-3.1-3.1s1.4-3.1 3.1-3.1c1.7 0 3.1 1.4 3.1 3.1s-1.4 3.1-3.1 3.1zM54.7 28.3h2.1v10.5h-2.1zM54.7 40.9h2.1V43h-2.1zM50.6 35.7h2.1v5.2h-2.1zM50.6 43h2.1v2.1h-2.1zM46.5 40.9h2.1V43h-2.1z"/><path d="M46.5 45.1h2.1v2.1h-2.1zM7.2 28.3h2.1v10.5H7.2zM7.2 40.9h2.1V43H7.2zM11.4 35.7h2.1v5.2h-2.1zM11.4 43h2.1v2.1h-2.1zM15.5 40.9h2.1V43h-2.1zM15.5 45.1h2.1v2.1h-2.1zM33.5 10.5H33V8.4h-2v2.1h-.5c-3.1 0-5.7 2.6-5.7 5.8s2.5 5.8 5.7 5.8h3.1c2 0 3.6 1.6 3.6 3.7s-1.6 3.7-3.6 3.7h-3.1c-2 0-3.6-1.6-3.6-3.7v-.5h-2.1v.5c0 3.2 2.5 5.8 5.7 5.8h.5v2.1h2v-2.1h.5c3.1 0 5.7-2.6 5.7-5.8S36.7 20 33.5 20h-3.1c-2 0-3.6-1.6-3.6-3.7s1.6-3.7 3.6-3.7h3.1c2 0 3.6 1.6 3.6 3.7v.5h2.1v-.5c0-3.2-2.5-5.8-5.7-5.8z"/></g></svg><svg id="twitter" data-name="Layer 1" width="53.78" height="44.06" viewBox="-1 -1 53.78 44.06" x="66" y="59.7" xmlns="http://www.w3.org/2000/svg"><defs><style>.jcls-1{fill:#fff}</style></defs><title>twitter</title><path class="jcls-1" d="M51.78 5a22.23 22.23 0 0 1-5.32 5.52v1.38a30.15 30.15 0 0 1-1.25 8.53 30.81 30.81 0 0 1-3.76 8.13 32.1 32.1 0 0 1-6.06 6.92 27 27 0 0 1-8.48 4.8 31 31 0 0 1-10.62 1.8A29.47 29.47 0 0 1 0 37.29a22.71 22.71 0 0 0 2.56.13 20.78 20.78 0 0 0 13.17-4.53 10.63 10.63 0 0 1-9.92-7.36 13.45 13.45 0 0 0 2 .16 11 11 0 0 0 2.79-.36 10.44 10.44 0 0 1-6.09-3.67 10.25 10.25 0 0 1-2.41-6.75v-.13a10.52 10.52 0 0 0 4.8 1.34 10.6 10.6 0 0 1-3.45-3.78 10.34 10.34 0 0 1-1.28-5.07 10.4 10.4 0 0 1 1.45-5.33 30.08 30.08 0 0 0 9.71 7.83A29.57 29.57 0 0 0 25.53 13a11.79 11.79 0 0 1-.26-2.43 10.23 10.23 0 0 1 3-7.48 10.64 10.64 0 0 1 15 0l.21.22A20.81 20.81 0 0 0 50.33.8a10.3 10.3 0 0 1-4.67 5.85A21.14 21.14 0 0 0 51.78 5z"/></svg><svg width="62" height="66" viewBox="-1 -1 62 66" id="wifi" x="143.7" xmlns="http://www.w3.org/2000/svg"><g fill="#0C6"><path d="M55.2 31h-9.8c-.1-5.1-.7-10-1.9-14.4h6.4c.5 0 1-.5 1-1s-.4-1-1-1h-7c-1-3.3-2.3-6.2-3.9-8.5-.3-.5-.9-.6-1.3-.2-.4.3-.5 1-.2 1.4 1.4 2 2.5 4.5 3.4 7.3H31V5.1c0-.6-.4-1-1-1s-1 .5-1 1v9.4h-9.9c.9-2.8 2.1-5.3 3.4-7.3.3-.5.2-1.1-.2-1.4-.4-.3-1-.2-1.3.2-1.6 2.3-2.9 5.2-3.9 8.5h-7c-.5 0-1 .5-1 1s.4 1 1 1h6.4c-1.1 4.4-1.8 9.3-1.9 14.4H4.8c-.5 0-1 .5-1 1s.4 1 1 1h9.8c.1 5.1.7 10 1.9 14.4h-6.4c-.5 0-1 .5-1 1s.4 1 1 1h7c1 3.3 2.3 6.2 3.9 8.5.2.3.5.4.8.4.2 0 .4-.1.6-.2.4-.3.5-1 .2-1.4-1.4-2-2.5-4.5-3.4-7.3H29v9.4c0 .6.4 1 1 1s1-.5 1-1v-9.4h9.9c-.9 2.8-2.1 5.3-3.4 7.3-.3.5-.2 1.1.2 1.4.2.1.4.2.6.2.3 0 .6-.1.8-.4 1.6-2.3 2.9-5.2 3.9-8.5h7c.5 0 1-.5 1-1s-.4-1-1-1h-6.4c1.1-4.4 1.8-9.3 1.9-14.4h9.8c.5 0 1-.5 1-1s-.6-.9-1.1-.9zM41.5 16.6c1.2 4.3 1.9 9.3 2 14.4H31V16.6h10.5zm-23 0H29V31H16.5c.1-5.2.8-10.1 2-14.4zm0 30.8c-1.2-4.3-1.9-9.3-2-14.4H29v14.4H18.5zm23 0H31V33h12.5c-.1 5.2-.8 10.1-2 14.4z"/><path d="M51.2 9.4C45.5 3.3 38 0 30 0S14.5 3.3 8.8 9.4 0 23.5 0 32c0 6.3 1.7 12.4 4.9 17.6L1.3 61.3c-.1.4 0 .8.2 1 .3.3.6.4 1 .2l11-3.9C18.4 62.2 24.1 64 30 64c8 0 15.5-3.3 21.2-9.4S60 40.5 60 32c0-8.5-3.1-16.6-8.8-22.6zM30 62c-5.7 0-11.2-1.8-15.8-5.2-.2-.1-.3-.2-.5-.2-.1 0-.2 0-.3.1L3.7 60l3.2-10.3c.1-.2.1-.6-.1-.8-3.2-5-4.9-10.8-4.9-16.9C1.9 15.5 14.5 2 30 2s28.1 13.4 28.1 30c0 16.5-12.6 30-28.1 30z"/></g></svg><svg id="youtube" width="36.8" height="44" viewBox="-1 -1 36.8 44" x="44.01" y="175.7" xmlns="http://www.w3.org/2000/svg"><style>.lst0{fill:#fff}</style><path id="lLinkedIn" class="lst0" d="M34.8 25.8V42h-7.5V26.8c0-3.8-1.1-6.4-3.8-6.4-2.1 0-3.3 1.8-3.8 3.4-.2.6-.2 1.4-.2 2.3V42H12s.1-25.7 0-28.3h7.5v4.1-.1c1-1.9 2.8-4.7 6.7-4.7 4.9 0 8.6 4 8.6 12.8zM4.2 0C1.7 0 0 2.1 0 4.9c0 2.7 1.6 4.9 4.1 4.9 2.6 0 4.2-2.2 4.2-4.9C8.3 2.1 6.8 0 4.2 0zM.4 42h7.5V13.7H.4V42z"/></svg></svg>