<?xml version="1.0" encoding="utf-8"?>
<!-- Generator: Adobe Illustrator 23.0.0, SVG Export Plug-In . SVG Version: 6.00 Build 0)  -->
<svg version="1.1" id="Camada_1" xmlns="http://www.w3.org/2000/svg" xmlns:xlink="http://www.w3.org/1999/xlink" x="0px" y="0px"
	 width="141.7px" height="57.7px" viewBox="0 0 141.7 57.7" style="enable-background:new 0 0 141.7 57.7;" xml:space="preserve">
<style type="text/css">
	.st0{display:none;fill:#7C7C7C;}
	.st1{fill:#FFFFFF;}
</style>
<rect x="-0.2" y="0" class="st0" width="141.7" height="57.7"/>
<g id="Logo">
	<path class="st1" d="M51.8,19.7c4.7,0,8.3,3.9,8.4,8.9c0,5.1-3.7,9.1-8.5,9c-4.8,0-8.3-3.9-8.3-9C43.4,23.5,47,19.7,51.8,19.7z
		 M56.6,28.7c0-3.2-2.1-5.7-4.9-5.7c-2.7,0-5,2.5-5,5.7c0,3.1,2.2,5.7,5,5.7C54.5,34.4,56.6,32,56.6,28.7z"/>
	<path class="st1" d="M40.8,22.3c-0.6,0.8-1.3,1.6-2,2.5c-1.6-1.4-3.3-2.4-5.3-1.7c-0.9,0.3-1.8,1-2.4,1.8c-1.7,2.2-1.5,5.6,0.2,7.7
		c1.8,2.2,4.3,2.1,7.6-0.3c0.6,0.7,1.3,1.4,1.9,2.1c-2.2,3.6-8,4.1-11.4,1.1c-3.7-3.3-4-9.6-0.7-13.3C31.9,18.8,37.9,18.8,40.8,22.3
		z"/>
	<path class="st1" d="M99.9,36.3c-1.1,0.4-2,1-3.1,1.3C94,38.2,91.9,36,92.1,33c0.1-2,1.7-3.5,4.1-3.6c1.2,0,2.4,0.2,3.6,0.3
		c0.4-1.3-0.4-2.6-2-2.7c-1.2-0.1-2.5,0.2-3.8,0.4c0,0-0.1,0-0.1-0.1c-0.7-2.5-1.4-2.4,1.5-3c1.3-0.3,2.6-0.3,3.9-0.1
		c2.2,0.3,3.7,2,3.8,4.6c0.1,2.8,0,5.7,0,8.6c-1,0-1.9,0-3,0C100,36.9,99.9,36.5,99.9,36.3z M97.3,35.4c0.7-0.3,1.5-0.4,1.9-1
		c0.4-0.5,0.6-1.4,0.7-2.1c0-0.3-0.8-0.7-1.3-0.8c-0.5-0.1-1.1-0.1-1.7,0c-1.2,0.2-1.8,0.9-1.7,2.1C95.3,34.7,96,35.2,97.3,35.4z"/>
	<path class="st1" d="M22.3,57c-9.6,0.4-20.5-11.6-22-23.9c-1.8-14.6,6.3-28.2,19-32.1c13-3.9,25.7,3.6,30.6,15.1
		c-0.1,0.1-0.4,0.2-0.5,0.3c-0.2-0.4-0.4-0.7-0.6-1.1c-3.7-7-9-11.6-16.1-13.7C18.4-2.5,3.7,7.9,1.1,23.9
		c-2.5,16,8.8,31.4,21.2,32.3C22.3,56.4,22.3,56.8,22.3,57z"/>
	<path class="st1" d="M73.5,25.9c-0.6,0.7-1.2,1.4-1.8,2.3c-1.1-1-2.2-1.8-3.6-1.2c-0.6,0.2-1.3,0.7-1.7,1.3c-1.1,1.5-0.9,4,0.3,5.4
		c1.2,1.4,2.7,1.4,5.1-0.2c0.5,0.7,1.1,1.3,1.6,2c-2.1,2.9-6.3,3.1-8.9,0.5c-2.6-2.6-2.7-7.2-0.3-9.9C66.8,23.1,71.1,23.1,73.5,25.9
		z"/>
	<path class="st1" d="M113.5,23.9c0,0.5,0,0.9,0,1.3c0.1,1.4,0,2.5-1.7,2.8c-1.8,0.4-2.2,2.2-2.3,4c-0.1,1.7,0,3.5,0,5.3
		c-1.1,0-2,0-3.1,0c0-0.5-0.1-1-0.1-1.5c0-3.4,0-6.8,0-10.2c0-1.2,0.3-1.7,1.4-1.6c0.5,0.1,1.1,0,1.7,0c0,0.8,0.1,1.5,0.2,2.6
		C110.7,25,111.6,23.7,113.5,23.9z"/>
	<path class="st1" d="M79.4,37.3c-1.1,0-2.1,0-3.1,0c0-4.4,0-8.8,0-13.2c1,0,1.9,0,3,0c0.1,0.7,0.1,1.5,0.2,2.6c1-1.7,1.9-3,3.8-2.9
		c0,1.1,0,2.1,0,3.1c0,0.2-0.3,0.5-0.6,0.6c-2.6,1-3.3,2-3.3,5.1C79.4,34.2,79.4,35.7,79.4,37.3z"/>
	<path class="st1" d="M89.1,24.1c0,4.4,0,8.8,0,13.2c-1,0-2,0-3,0c0-4.4,0-8.7,0-13.2C87.1,24.1,88,24.1,89.1,24.1z"/>
	<path class="st1" d="M85.9,22.2c0-1,0-1.9,0-3c1.1,0,2.2,0,3.4,0c0,1,0,1.9,0,3C88.2,22.2,87.1,22.2,85.9,22.2z"/>
	<path class="st1" d="M46,47.3c2.2-2.6,3.6-5.7,3.9-6.7c0.1,0,0.2,0,0.4,0c-0.2,1.8-2.6,6-3.9,6.9C46.2,47.4,46.1,47.4,46,47.3z"/>
	<g>
		<path class="st1" d="M30.4,56.1c-0.3,0.2-0.6,0.3-1,0.3c-0.3,0-0.6-0.1-0.9-0.2c-0.3-0.1-0.5-0.3-0.7-0.5
			c-0.2-0.2-0.3-0.5-0.5-0.8c-0.1-0.3-0.2-0.6-0.2-0.9v0c0-0.3,0.1-0.6,0.2-0.9c0.1-0.3,0.3-0.6,0.5-0.8c0.2-0.2,0.4-0.4,0.7-0.5
			c0.3-0.1,0.5-0.2,0.9-0.2c0.2,0,0.4,0,0.5,0.1c0.2,0,0.3,0.1,0.5,0.2c0.1,0.1,0.3,0.2,0.4,0.3c0.1,0.1,0.2,0.2,0.3,0.3l-0.3,0.3
			c-0.2-0.2-0.4-0.4-0.6-0.5c-0.2-0.2-0.5-0.2-0.8-0.2c-0.2,0-0.5,0.1-0.7,0.2c-0.2,0.1-0.4,0.2-0.5,0.4c-0.2,0.2-0.3,0.4-0.4,0.6
			c-0.1,0.2-0.1,0.5-0.1,0.8v0c0,0.3,0,0.5,0.1,0.8s0.2,0.5,0.4,0.6s0.3,0.3,0.6,0.4c0.2,0.1,0.4,0.2,0.7,0.2c0.3,0,0.6-0.1,0.8-0.2
			c0.2-0.1,0.4-0.3,0.6-0.6l0.3,0.3C30.9,55.7,30.7,55.9,30.4,56.1z"/>
		<path class="st1" d="M34.5,52c-0.2,0-0.5,0.1-0.7,0.2c-0.2,0.1-0.4,0.2-0.6,0.4c-0.2,0.2-0.3,0.4-0.4,0.7c-0.1,0.3-0.1,0.6-0.1,1
			v1.9h-0.4v-4.7h0.4v1.3c0.1-0.2,0.2-0.4,0.3-0.6c0.1-0.2,0.3-0.3,0.4-0.5c0.2-0.1,0.3-0.2,0.5-0.3c0.2-0.1,0.4-0.1,0.6-0.1
			L34.5,52L34.5,52z"/>
		<path class="st1" d="M35.7,54.9c0.1,0.2,0.2,0.4,0.4,0.6c0.1,0.2,0.3,0.3,0.5,0.4c0.2,0.1,0.4,0.1,0.6,0.1c0.3,0,0.6-0.1,0.8-0.2
			c0.2-0.1,0.4-0.3,0.6-0.5l0.3,0.3c-0.2,0.3-0.5,0.5-0.7,0.6c-0.3,0.2-0.6,0.3-1,0.3c-0.3,0-0.5-0.1-0.8-0.2
			c-0.3-0.1-0.5-0.3-0.7-0.5c-0.2-0.2-0.3-0.5-0.5-0.8c-0.1-0.3-0.2-0.6-0.2-1v0c0-0.3,0.1-0.6,0.2-0.9c0.1-0.3,0.2-0.6,0.4-0.8
			c0.2-0.2,0.4-0.4,0.6-0.5c0.2-0.1,0.5-0.2,0.8-0.2c0.3,0,0.6,0.1,0.8,0.2c0.2,0.1,0.4,0.3,0.6,0.5c0.2,0.2,0.3,0.5,0.4,0.8
			c0.1,0.3,0.1,0.6,0.1,1v0c0,0,0,0.1,0,0.1c0,0,0,0,0,0.1h-3.5C35.6,54.4,35.6,54.6,35.7,54.9z M38.6,53.7c0-0.2-0.1-0.5-0.1-0.7
			c-0.1-0.2-0.2-0.4-0.3-0.6c-0.1-0.2-0.3-0.3-0.5-0.4c-0.2-0.1-0.4-0.2-0.6-0.2c-0.2,0-0.4,0-0.6,0.1c-0.2,0.1-0.3,0.2-0.5,0.4
			c-0.1,0.2-0.2,0.4-0.3,0.6c-0.1,0.2-0.1,0.5-0.2,0.7H38.6z"/>
		<path class="st1" d="M43.2,56.2v-0.8c-0.1,0.1-0.2,0.2-0.3,0.3c-0.1,0.1-0.2,0.2-0.4,0.3c-0.1,0.1-0.3,0.1-0.5,0.2
			c-0.2,0.1-0.4,0.1-0.6,0.1s-0.4,0-0.6-0.1c-0.2-0.1-0.4-0.2-0.5-0.3c-0.2-0.1-0.3-0.3-0.4-0.5c-0.1-0.2-0.1-0.4-0.1-0.6v0
			c0-0.2,0-0.5,0.1-0.6c0.1-0.2,0.2-0.3,0.4-0.5c0.2-0.1,0.4-0.2,0.6-0.3c0.2-0.1,0.5-0.1,0.8-0.1c0.3,0,0.6,0,0.8,0.1
			c0.2,0,0.4,0.1,0.6,0.1v-0.2c0-0.5-0.1-0.8-0.4-1.1c-0.2-0.2-0.6-0.4-1-0.4c-0.3,0-0.5,0-0.7,0.1c-0.2,0.1-0.4,0.2-0.6,0.3
			l-0.1-0.4c0.2-0.1,0.5-0.2,0.7-0.3c0.2-0.1,0.5-0.1,0.8-0.1c0.5,0,1,0.2,1.3,0.5c0.3,0.3,0.5,0.8,0.5,1.4v2.9H43.2z M43.2,54
			c-0.2,0-0.4-0.1-0.6-0.1c-0.2,0-0.5-0.1-0.8-0.1c-0.4,0-0.8,0.1-1,0.3c-0.2,0.2-0.4,0.5-0.4,0.8v0c0,0.2,0,0.3,0.1,0.5
			c0.1,0.1,0.2,0.2,0.3,0.3c0.1,0.1,0.2,0.2,0.4,0.2c0.1,0,0.3,0.1,0.5,0.1c0.2,0,0.4,0,0.6-0.1c0.2-0.1,0.4-0.2,0.5-0.3
			c0.1-0.1,0.3-0.3,0.3-0.5c0.1-0.2,0.1-0.4,0.1-0.6V54z"/>
		<path class="st1" d="M46.8,56.3c-0.1,0-0.2,0-0.4,0c-0.2,0-0.3,0-0.5-0.1c-0.1,0-0.3-0.1-0.4-0.2c-0.1-0.1-0.2-0.2-0.3-0.4
			c-0.1-0.2-0.1-0.4-0.1-0.6v-3h-0.6v-0.4h0.6v-1.5h0.4v1.5h1.5V52h-1.5v3c0,0.3,0.1,0.6,0.2,0.7c0.2,0.1,0.4,0.2,0.6,0.2
			c0.1,0,0.2,0,0.3,0c0.1,0,0.2-0.1,0.3-0.1v0.4C47,56.2,46.9,56.2,46.8,56.3z"/>
		<path class="st1" d="M48.3,50.4v-0.6h0.5v0.6H48.3z M48.4,56.2v-4.7h0.4v4.7H48.4z"/>
		<path class="st1" d="M52.2,56.3h-0.3l-1.9-4.7h0.5l1.6,4.2l1.6-4.2h0.5L52.2,56.3z"/>
		<path class="st1" d="M55.3,54.9c0.1,0.2,0.2,0.4,0.4,0.6c0.1,0.2,0.3,0.3,0.5,0.4s0.4,0.1,0.6,0.1c0.3,0,0.6-0.1,0.8-0.2
			c0.2-0.1,0.4-0.3,0.6-0.5l0.3,0.3c-0.2,0.3-0.5,0.5-0.7,0.6c-0.3,0.2-0.6,0.3-1,0.3c-0.3,0-0.5-0.1-0.8-0.2
			c-0.3-0.1-0.5-0.3-0.7-0.5c-0.2-0.2-0.3-0.5-0.5-0.8c-0.1-0.3-0.2-0.6-0.2-1v0c0-0.3,0.1-0.6,0.2-0.9c0.1-0.3,0.2-0.6,0.4-0.8
			c0.2-0.2,0.4-0.4,0.6-0.5c0.2-0.1,0.5-0.2,0.8-0.2c0.3,0,0.6,0.1,0.8,0.2c0.2,0.1,0.4,0.3,0.6,0.5c0.2,0.2,0.3,0.5,0.4,0.8
			c0.1,0.3,0.1,0.6,0.1,1v0c0,0,0,0.1,0,0.1c0,0,0,0,0,0.1h-3.5C55.1,54.4,55.2,54.6,55.3,54.9z M58.2,53.7c0-0.2-0.1-0.5-0.1-0.7
			c-0.1-0.2-0.2-0.4-0.3-0.6c-0.1-0.2-0.3-0.3-0.5-0.4c-0.2-0.1-0.4-0.2-0.6-0.2c-0.2,0-0.4,0-0.6,0.1c-0.2,0.1-0.3,0.2-0.5,0.4
			c-0.1,0.2-0.2,0.4-0.3,0.6c-0.1,0.2-0.1,0.5-0.2,0.7H58.2z"/>
		<path class="st1" d="M66.3,54.9c-0.1,0.3-0.3,0.6-0.5,0.8c-0.2,0.2-0.4,0.4-0.7,0.5c-0.2,0.1-0.5,0.2-0.8,0.2
			c-0.2,0-0.4,0-0.6-0.1c-0.2-0.1-0.3-0.1-0.5-0.2c-0.1-0.1-0.3-0.2-0.4-0.4c-0.1-0.1-0.2-0.3-0.3-0.4v1h-0.4v-6.7h0.4v3
			c0.1-0.2,0.2-0.3,0.3-0.4c0.1-0.1,0.2-0.3,0.4-0.4c0.1-0.1,0.3-0.2,0.5-0.3c0.2-0.1,0.4-0.1,0.6-0.1c0.3,0,0.5,0.1,0.8,0.2
			c0.2,0.1,0.5,0.3,0.7,0.5c0.2,0.2,0.4,0.5,0.5,0.8c0.1,0.3,0.2,0.6,0.2,1v0C66.5,54.3,66.5,54.6,66.3,54.9z M66.1,53.9
			c0-0.3,0-0.6-0.1-0.8c-0.1-0.2-0.2-0.5-0.4-0.6c-0.2-0.2-0.3-0.3-0.5-0.4c-0.2-0.1-0.4-0.1-0.6-0.1c-0.2,0-0.4,0-0.6,0.1
			c-0.2,0.1-0.4,0.2-0.6,0.4c-0.2,0.2-0.3,0.4-0.4,0.6c-0.1,0.2-0.1,0.5-0.1,0.8v0c0,0.3,0,0.6,0.1,0.8c0.1,0.2,0.2,0.5,0.4,0.6
			c0.2,0.2,0.3,0.3,0.6,0.4c0.2,0.1,0.4,0.1,0.6,0.1c0.2,0,0.5,0,0.7-0.1c0.2-0.1,0.4-0.2,0.5-0.4c0.1-0.2,0.3-0.4,0.4-0.6
			C66,54.5,66.1,54.2,66.1,53.9L66.1,53.9z"/>
		<path class="st1" d="M70.9,56.2v-0.9c-0.1,0.3-0.3,0.5-0.6,0.7c-0.2,0.2-0.6,0.3-0.9,0.3c-0.3,0-0.5,0-0.7-0.1
			c-0.2-0.1-0.4-0.2-0.5-0.4c-0.1-0.2-0.3-0.4-0.3-0.6c-0.1-0.2-0.1-0.5-0.1-0.8v-2.8h0.4v2.8c0,0.5,0.1,0.9,0.3,1.2
			c0.2,0.3,0.6,0.4,1,0.4c0.2,0,0.4,0,0.6-0.1c0.2-0.1,0.3-0.2,0.5-0.3s0.2-0.3,0.3-0.5c0.1-0.2,0.1-0.4,0.1-0.7v-2.7h0.4v4.7H70.9z
			"/>
		<path class="st1" d="M75.6,55.5c-0.1,0.2-0.2,0.3-0.3,0.4s-0.3,0.2-0.5,0.3c-0.2,0.1-0.4,0.1-0.6,0.1c-0.3,0-0.6-0.1-0.9-0.2
			c-0.3-0.1-0.6-0.3-0.8-0.5l0.2-0.4c0.2,0.2,0.5,0.3,0.7,0.5c0.3,0.1,0.5,0.2,0.8,0.2c0.3,0,0.5-0.1,0.7-0.2
			c0.2-0.2,0.3-0.4,0.3-0.6v0c0-0.1,0-0.2-0.1-0.3c-0.1-0.1-0.1-0.2-0.2-0.3c-0.1-0.1-0.2-0.1-0.4-0.2c-0.1,0-0.3-0.1-0.4-0.1
			c-0.2-0.1-0.3-0.1-0.5-0.2c-0.2-0.1-0.3-0.1-0.5-0.2c-0.1-0.1-0.3-0.2-0.3-0.4c-0.1-0.1-0.1-0.3-0.1-0.5v0c0-0.2,0-0.4,0.1-0.5
			c0.1-0.2,0.2-0.3,0.3-0.4c0.1-0.1,0.3-0.2,0.4-0.3c0.2-0.1,0.4-0.1,0.6-0.1c0.3,0,0.5,0,0.8,0.1c0.3,0.1,0.5,0.2,0.7,0.4l-0.2,0.4
			c-0.2-0.1-0.4-0.3-0.6-0.3c-0.2-0.1-0.5-0.1-0.7-0.1c-0.3,0-0.5,0.1-0.7,0.2c-0.2,0.2-0.3,0.3-0.3,0.6v0c0,0.1,0,0.2,0.1,0.3
			c0.1,0.1,0.2,0.2,0.3,0.2c0.1,0.1,0.2,0.1,0.4,0.2c0.1,0.1,0.3,0.1,0.4,0.2c0.2,0.1,0.3,0.1,0.5,0.2c0.2,0.1,0.3,0.1,0.4,0.2
			c0.1,0.1,0.2,0.2,0.3,0.4c0.1,0.1,0.1,0.3,0.1,0.5v0C75.7,55.2,75.7,55.4,75.6,55.5z"/>
		<path class="st1" d="M77,50.4v-0.6h0.5v0.6H77z M77.1,56.2v-4.7h0.4v4.7H77.1z"/>
		<path class="st1" d="M82.3,56.2v-2.8c0-0.5-0.1-0.9-0.3-1.2c-0.2-0.3-0.6-0.4-1-0.4c-0.2,0-0.4,0-0.6,0.1
			c-0.2,0.1-0.3,0.2-0.5,0.3c-0.1,0.1-0.2,0.3-0.3,0.5c-0.1,0.2-0.1,0.4-0.1,0.7v2.7h-0.4v-4.7h0.4v0.9c0.1-0.3,0.3-0.5,0.6-0.7
			c0.2-0.2,0.6-0.3,0.9-0.3c0.3,0,0.5,0,0.7,0.1c0.2,0.1,0.4,0.2,0.5,0.4c0.1,0.2,0.3,0.4,0.3,0.6c0.1,0.2,0.1,0.5,0.1,0.8v2.8H82.3
			z"/>
		<path class="st1" d="M84.5,54.9c0.1,0.2,0.2,0.4,0.4,0.6c0.1,0.2,0.3,0.3,0.5,0.4c0.2,0.1,0.4,0.1,0.6,0.1c0.3,0,0.6-0.1,0.8-0.2
			c0.2-0.1,0.4-0.3,0.6-0.5l0.3,0.3c-0.2,0.3-0.5,0.5-0.7,0.6c-0.3,0.2-0.6,0.3-1,0.3c-0.3,0-0.5-0.1-0.8-0.2
			c-0.3-0.1-0.5-0.3-0.7-0.5c-0.2-0.2-0.3-0.5-0.5-0.8c-0.1-0.3-0.2-0.6-0.2-1v0c0-0.3,0.1-0.6,0.2-0.9c0.1-0.3,0.2-0.6,0.4-0.8
			c0.2-0.2,0.4-0.4,0.6-0.5c0.2-0.1,0.5-0.2,0.8-0.2c0.3,0,0.6,0.1,0.8,0.2c0.2,0.1,0.4,0.3,0.6,0.5c0.2,0.2,0.3,0.5,0.4,0.8
			c0.1,0.3,0.1,0.6,0.1,1v0c0,0,0,0.1,0,0.1c0,0,0,0,0,0.1h-3.5C84.3,54.4,84.4,54.6,84.5,54.9z M87.4,53.7c0-0.2-0.1-0.5-0.1-0.7
			c-0.1-0.2-0.2-0.4-0.3-0.6c-0.1-0.2-0.3-0.3-0.5-0.4c-0.2-0.1-0.4-0.2-0.6-0.2c-0.2,0-0.4,0-0.6,0.1c-0.2,0.1-0.3,0.2-0.5,0.4
			c-0.1,0.2-0.2,0.4-0.3,0.6c-0.1,0.2-0.1,0.5-0.2,0.7H87.4z"/>
		<path class="st1" d="M91.7,55.5c-0.1,0.2-0.2,0.3-0.3,0.4c-0.1,0.1-0.3,0.2-0.5,0.3c-0.2,0.1-0.4,0.1-0.6,0.1
			c-0.3,0-0.6-0.1-0.9-0.2s-0.6-0.3-0.8-0.5l0.2-0.4c0.2,0.2,0.5,0.3,0.7,0.5c0.3,0.1,0.5,0.2,0.8,0.2c0.3,0,0.5-0.1,0.7-0.2
			c0.2-0.2,0.3-0.4,0.3-0.6v0c0-0.1,0-0.2-0.1-0.3c-0.1-0.1-0.1-0.2-0.2-0.3c-0.1-0.1-0.2-0.1-0.4-0.2c-0.1,0-0.3-0.1-0.4-0.1
			c-0.2-0.1-0.3-0.1-0.5-0.2c-0.2-0.1-0.3-0.1-0.5-0.2c-0.1-0.1-0.3-0.2-0.3-0.4c-0.1-0.1-0.1-0.3-0.1-0.5v0c0-0.2,0-0.4,0.1-0.5
			c0.1-0.2,0.2-0.3,0.3-0.4c0.1-0.1,0.3-0.2,0.4-0.3c0.2-0.1,0.4-0.1,0.6-0.1c0.3,0,0.5,0,0.8,0.1c0.3,0.1,0.5,0.2,0.7,0.4l-0.2,0.4
			c-0.2-0.1-0.4-0.3-0.6-0.3c-0.2-0.1-0.5-0.1-0.7-0.1c-0.3,0-0.5,0.1-0.7,0.2c-0.2,0.2-0.3,0.3-0.3,0.6v0c0,0.1,0,0.2,0.1,0.3
			c0.1,0.1,0.2,0.2,0.3,0.2c0.1,0.1,0.2,0.1,0.4,0.2c0.1,0.1,0.3,0.1,0.4,0.2c0.2,0.1,0.3,0.1,0.5,0.2c0.2,0.1,0.3,0.1,0.4,0.2
			c0.1,0.1,0.2,0.2,0.3,0.4s0.1,0.3,0.1,0.5v0C91.9,55.2,91.8,55.4,91.7,55.5z"/>
		<path class="st1" d="M95.8,55.5c-0.1,0.2-0.2,0.3-0.3,0.4c-0.1,0.1-0.3,0.2-0.5,0.3c-0.2,0.1-0.4,0.1-0.6,0.1
			c-0.3,0-0.6-0.1-0.9-0.2s-0.6-0.3-0.8-0.5l0.2-0.4c0.2,0.2,0.5,0.3,0.7,0.5c0.3,0.1,0.5,0.2,0.8,0.2c0.3,0,0.5-0.1,0.7-0.2
			c0.2-0.2,0.3-0.4,0.3-0.6v0c0-0.1,0-0.2-0.1-0.3c-0.1-0.1-0.1-0.2-0.2-0.3c-0.1-0.1-0.2-0.1-0.4-0.2c-0.1,0-0.3-0.1-0.4-0.1
			c-0.2-0.1-0.3-0.1-0.5-0.2c-0.2-0.1-0.3-0.1-0.5-0.2c-0.1-0.1-0.3-0.2-0.3-0.4c-0.1-0.1-0.1-0.3-0.1-0.5v0c0-0.2,0-0.4,0.1-0.5
			c0.1-0.2,0.2-0.3,0.3-0.4c0.1-0.1,0.3-0.2,0.4-0.3c0.2-0.1,0.4-0.1,0.6-0.1c0.3,0,0.5,0,0.8,0.1c0.3,0.1,0.5,0.2,0.7,0.4l-0.2,0.4
			c-0.2-0.1-0.4-0.3-0.6-0.3c-0.2-0.1-0.5-0.1-0.7-0.1c-0.3,0-0.5,0.1-0.7,0.2c-0.2,0.2-0.3,0.3-0.3,0.6v0c0,0.1,0,0.2,0.1,0.3
			c0.1,0.1,0.2,0.2,0.3,0.2c0.1,0.1,0.2,0.1,0.4,0.2c0.1,0.1,0.3,0.1,0.4,0.2c0.2,0.1,0.3,0.1,0.5,0.2c0.2,0.1,0.3,0.1,0.4,0.2
			c0.1,0.1,0.2,0.2,0.3,0.4s0.1,0.3,0.1,0.5v0C95.9,55.2,95.9,55.4,95.8,55.5z"/>
		<path class="st1" d="M100,54.9c0.1,0.2,0.2,0.4,0.4,0.6c0.1,0.2,0.3,0.3,0.5,0.4c0.2,0.1,0.4,0.1,0.6,0.1c0.3,0,0.6-0.1,0.8-0.2
			c0.2-0.1,0.4-0.3,0.6-0.5l0.3,0.3c-0.2,0.3-0.5,0.5-0.7,0.6c-0.3,0.2-0.6,0.3-1,0.3c-0.3,0-0.5-0.1-0.8-0.2
			c-0.3-0.1-0.5-0.3-0.7-0.5c-0.2-0.2-0.3-0.5-0.5-0.8c-0.1-0.3-0.2-0.6-0.2-1v0c0-0.3,0.1-0.6,0.2-0.9c0.1-0.3,0.2-0.6,0.4-0.8
			c0.2-0.2,0.4-0.4,0.6-0.5c0.2-0.1,0.5-0.2,0.8-0.2c0.3,0,0.6,0.1,0.8,0.2c0.2,0.1,0.4,0.3,0.6,0.5c0.2,0.2,0.3,0.5,0.4,0.8
			c0.1,0.3,0.1,0.6,0.1,1v0c0,0,0,0.1,0,0.1c0,0,0,0,0,0.1h-3.5C99.8,54.4,99.9,54.6,100,54.9z M102.9,53.7c0-0.2-0.1-0.5-0.1-0.7
			c-0.1-0.2-0.2-0.4-0.3-0.6c-0.1-0.2-0.3-0.3-0.5-0.4s-0.4-0.2-0.6-0.2c-0.2,0-0.4,0-0.6,0.1c-0.2,0.1-0.3,0.2-0.5,0.4
			c-0.1,0.2-0.2,0.4-0.3,0.6c-0.1,0.2-0.1,0.5-0.2,0.7H102.9z"/>
		<path class="st1" d="M107.4,56.1c-0.3,0.2-0.6,0.3-1,0.3c-0.3,0-0.6-0.1-0.9-0.2c-0.3-0.1-0.5-0.3-0.7-0.5
			c-0.2-0.2-0.3-0.5-0.5-0.8c-0.1-0.3-0.2-0.6-0.2-0.9v0c0-0.3,0.1-0.6,0.2-0.9c0.1-0.3,0.3-0.6,0.5-0.8c0.2-0.2,0.4-0.4,0.7-0.5
			c0.3-0.1,0.5-0.2,0.9-0.2c0.2,0,0.4,0,0.5,0.1c0.2,0,0.3,0.1,0.5,0.2c0.1,0.1,0.3,0.2,0.4,0.3c0.1,0.1,0.2,0.2,0.3,0.3l-0.3,0.3
			c-0.2-0.2-0.4-0.4-0.6-0.5c-0.2-0.2-0.5-0.2-0.8-0.2c-0.2,0-0.5,0.1-0.7,0.2c-0.2,0.1-0.4,0.2-0.5,0.4c-0.2,0.2-0.3,0.4-0.4,0.6
			c-0.1,0.2-0.1,0.5-0.1,0.8v0c0,0.3,0,0.5,0.1,0.8c0.1,0.2,0.2,0.5,0.4,0.6c0.2,0.2,0.3,0.3,0.6,0.4c0.2,0.1,0.4,0.2,0.7,0.2
			c0.3,0,0.6-0.1,0.8-0.2c0.2-0.1,0.4-0.3,0.6-0.6l0.3,0.3C107.9,55.7,107.7,55.9,107.4,56.1z"/>
		<path class="st1" d="M113.1,54.8c-0.1,0.3-0.3,0.6-0.5,0.8c-0.2,0.2-0.4,0.4-0.7,0.5c-0.3,0.1-0.6,0.2-0.9,0.2s-0.6-0.1-0.9-0.2
			c-0.3-0.1-0.5-0.3-0.7-0.5c-0.2-0.2-0.3-0.5-0.5-0.8c-0.1-0.3-0.2-0.6-0.2-0.9v0c0-0.3,0.1-0.6,0.2-0.9s0.3-0.6,0.5-0.8
			c0.2-0.2,0.4-0.4,0.7-0.5c0.3-0.1,0.6-0.2,0.9-0.2c0.3,0,0.6,0.1,0.9,0.2c0.3,0.1,0.5,0.3,0.7,0.5c0.2,0.2,0.3,0.5,0.5,0.8
			c0.1,0.3,0.2,0.6,0.2,0.9v0C113.2,54.2,113.2,54.5,113.1,54.8z M112.8,53.9c0-0.3,0-0.5-0.1-0.8c-0.1-0.2-0.2-0.5-0.4-0.6
			c-0.2-0.2-0.3-0.3-0.6-0.4c-0.2-0.1-0.4-0.2-0.7-0.2c-0.3,0-0.5,0.1-0.7,0.2c-0.2,0.1-0.4,0.2-0.6,0.4c-0.2,0.2-0.3,0.4-0.4,0.6
			c-0.1,0.2-0.1,0.5-0.1,0.8v0c0,0.3,0,0.5,0.1,0.8c0.1,0.2,0.2,0.5,0.4,0.6c0.2,0.2,0.3,0.3,0.6,0.4c0.2,0.1,0.4,0.2,0.7,0.2
			c0.3,0,0.5-0.1,0.7-0.2c0.2-0.1,0.4-0.2,0.6-0.4c0.2-0.2,0.3-0.4,0.4-0.6C112.7,54.4,112.8,54.2,112.8,53.9L112.8,53.9z"/>
		<path class="st1" d="M117.2,55.5c-0.1,0.2-0.2,0.3-0.3,0.4c-0.1,0.1-0.3,0.2-0.5,0.3c-0.2,0.1-0.4,0.1-0.6,0.1
			c-0.3,0-0.6-0.1-0.9-0.2s-0.6-0.3-0.8-0.5l0.2-0.4c0.2,0.2,0.5,0.3,0.7,0.5c0.3,0.1,0.5,0.2,0.8,0.2c0.3,0,0.5-0.1,0.7-0.2
			c0.2-0.2,0.3-0.4,0.3-0.6v0c0-0.1,0-0.2-0.1-0.3c-0.1-0.1-0.1-0.2-0.2-0.3c-0.1-0.1-0.2-0.1-0.4-0.2c-0.1,0-0.3-0.1-0.4-0.1
			c-0.2-0.1-0.3-0.1-0.5-0.2c-0.2-0.1-0.3-0.1-0.5-0.2c-0.1-0.1-0.3-0.2-0.3-0.4c-0.1-0.1-0.1-0.3-0.1-0.5v0c0-0.2,0-0.4,0.1-0.5
			c0.1-0.2,0.2-0.3,0.3-0.4c0.1-0.1,0.3-0.2,0.4-0.3c0.2-0.1,0.4-0.1,0.6-0.1c0.3,0,0.5,0,0.8,0.1c0.3,0.1,0.5,0.2,0.7,0.4l-0.2,0.4
			c-0.2-0.1-0.4-0.3-0.6-0.3c-0.2-0.1-0.5-0.1-0.7-0.1c-0.3,0-0.5,0.1-0.7,0.2c-0.2,0.2-0.3,0.3-0.3,0.6v0c0,0.1,0,0.2,0.1,0.3
			c0.1,0.1,0.2,0.2,0.3,0.2c0.1,0.1,0.2,0.1,0.4,0.2c0.1,0.1,0.3,0.1,0.4,0.2c0.2,0.1,0.3,0.1,0.5,0.2c0.2,0.1,0.3,0.1,0.4,0.2
			c0.1,0.1,0.2,0.2,0.3,0.4c0.1,0.1,0.1,0.3,0.1,0.5v0C117.3,55.2,117.3,55.4,117.2,55.5z"/>
		<path class="st1" d="M120.4,56.4c-0.2,0.5-0.4,0.8-0.6,1c-0.2,0.2-0.5,0.3-0.8,0.3c-0.2,0-0.3,0-0.4-0.1c-0.1,0-0.3-0.1-0.4-0.2
			l0.1-0.4c0.1,0.1,0.2,0.1,0.3,0.1c0.1,0,0.2,0,0.4,0c0.1,0,0.2,0,0.3-0.1c0.1,0,0.2-0.1,0.3-0.2c0.1-0.1,0.2-0.2,0.2-0.3
			c0.1-0.1,0.2-0.3,0.2-0.5l-2-4.6h0.5l1.8,4.2l1.5-4.2h0.4L120.4,56.4z"/>
		<path class="st1" d="M125.9,55.5c-0.1,0.2-0.2,0.3-0.3,0.4c-0.1,0.1-0.3,0.2-0.5,0.3c-0.2,0.1-0.4,0.1-0.6,0.1
			c-0.3,0-0.6-0.1-0.9-0.2s-0.6-0.3-0.8-0.5l0.2-0.4c0.2,0.2,0.5,0.3,0.7,0.5c0.3,0.1,0.5,0.2,0.8,0.2c0.3,0,0.5-0.1,0.7-0.2
			c0.2-0.2,0.3-0.4,0.3-0.6v0c0-0.1,0-0.2-0.1-0.3c-0.1-0.1-0.1-0.2-0.2-0.3c-0.1-0.1-0.2-0.1-0.4-0.2c-0.1,0-0.3-0.1-0.4-0.1
			c-0.2-0.1-0.3-0.1-0.5-0.2c-0.2-0.1-0.3-0.1-0.5-0.2c-0.1-0.1-0.3-0.2-0.3-0.4c-0.1-0.1-0.1-0.3-0.1-0.5v0c0-0.2,0-0.4,0.1-0.5
			c0.1-0.2,0.2-0.3,0.3-0.4c0.1-0.1,0.3-0.2,0.4-0.3c0.2-0.1,0.4-0.1,0.6-0.1c0.3,0,0.5,0,0.8,0.1c0.3,0.1,0.5,0.2,0.7,0.4l-0.2,0.4
			c-0.2-0.1-0.4-0.3-0.6-0.3c-0.2-0.1-0.5-0.1-0.7-0.1c-0.3,0-0.5,0.1-0.7,0.2c-0.2,0.2-0.3,0.3-0.3,0.6v0c0,0.1,0,0.2,0.1,0.3
			c0.1,0.1,0.2,0.2,0.3,0.2c0.1,0.1,0.2,0.1,0.4,0.2c0.1,0.1,0.3,0.1,0.4,0.2c0.2,0.1,0.3,0.1,0.5,0.2c0.2,0.1,0.3,0.1,0.4,0.2
			c0.1,0.1,0.2,0.2,0.3,0.4s0.1,0.3,0.1,0.5v0C126,55.2,126,55.4,125.9,55.5z"/>
		<path class="st1" d="M129,56.3c-0.1,0-0.2,0-0.4,0c-0.2,0-0.3,0-0.5-0.1c-0.1,0-0.3-0.1-0.4-0.2c-0.1-0.1-0.2-0.2-0.3-0.4
			c-0.1-0.2-0.1-0.4-0.1-0.6v-3h-0.6v-0.4h0.6v-1.5h0.4v1.5h1.5V52h-1.5v3c0,0.3,0.1,0.6,0.2,0.7c0.2,0.1,0.4,0.2,0.6,0.2
			c0.1,0,0.2,0,0.3,0c0.1,0,0.2-0.1,0.3-0.1v0.4C129.2,56.2,129.1,56.2,129,56.3z"/>
		<path class="st1" d="M130.8,54.9c0.1,0.2,0.2,0.4,0.4,0.6c0.1,0.2,0.3,0.3,0.5,0.4c0.2,0.1,0.4,0.1,0.6,0.1c0.3,0,0.6-0.1,0.8-0.2
			c0.2-0.1,0.4-0.3,0.6-0.5l0.3,0.3c-0.2,0.3-0.5,0.5-0.7,0.6c-0.3,0.2-0.6,0.3-1,0.3c-0.3,0-0.5-0.1-0.8-0.2
			c-0.3-0.1-0.5-0.3-0.7-0.5c-0.2-0.2-0.3-0.5-0.5-0.8c-0.1-0.3-0.2-0.6-0.2-1v0c0-0.3,0.1-0.6,0.2-0.9c0.1-0.3,0.2-0.6,0.4-0.8
			c0.2-0.2,0.4-0.4,0.6-0.5c0.2-0.1,0.5-0.2,0.8-0.2c0.3,0,0.6,0.1,0.8,0.2c0.2,0.1,0.4,0.3,0.6,0.5c0.2,0.2,0.3,0.5,0.4,0.8
			c0.1,0.3,0.1,0.6,0.1,1v0c0,0,0,0.1,0,0.1c0,0,0,0,0,0.1h-3.5C130.6,54.4,130.7,54.6,130.8,54.9z M133.7,53.7
			c0-0.2-0.1-0.5-0.1-0.7c-0.1-0.2-0.2-0.4-0.3-0.6c-0.1-0.2-0.3-0.3-0.5-0.4c-0.2-0.1-0.4-0.2-0.6-0.2c-0.2,0-0.4,0-0.6,0.1
			c-0.2,0.1-0.3,0.2-0.5,0.4c-0.1,0.2-0.2,0.4-0.3,0.6c-0.1,0.2-0.1,0.5-0.2,0.7H133.7z"/>
		<path class="st1" d="M141.3,56.2v-2.8c0-0.5-0.1-0.9-0.3-1.2c-0.2-0.3-0.5-0.4-0.9-0.4c-0.2,0-0.3,0-0.5,0.1
			c-0.2,0.1-0.3,0.2-0.4,0.3c-0.1,0.1-0.2,0.3-0.3,0.5c-0.1,0.2-0.1,0.4-0.1,0.7v2.7h-0.4v-2.8c0-0.5-0.1-0.9-0.3-1.1
			c-0.2-0.3-0.5-0.4-0.9-0.4c-0.2,0-0.4,0-0.5,0.1c-0.2,0.1-0.3,0.2-0.4,0.4c-0.1,0.2-0.2,0.3-0.3,0.5c-0.1,0.2-0.1,0.4-0.1,0.7v2.7
			h-0.4v-4.7h0.4v0.8c0.1-0.1,0.1-0.2,0.2-0.4c0.1-0.1,0.2-0.2,0.3-0.3c0.1-0.1,0.2-0.2,0.4-0.2c0.1-0.1,0.3-0.1,0.5-0.1
			c0.2,0,0.4,0,0.5,0.1c0.2,0.1,0.3,0.1,0.4,0.2c0.1,0.1,0.2,0.2,0.3,0.3c0.1,0.1,0.2,0.2,0.2,0.4c0.1-0.1,0.1-0.3,0.2-0.4
			c0.1-0.1,0.2-0.2,0.3-0.3c0.1-0.1,0.3-0.2,0.4-0.2c0.2-0.1,0.3-0.1,0.5-0.1c0.2,0,0.5,0,0.7,0.1c0.2,0.1,0.4,0.2,0.5,0.4
			c0.1,0.2,0.2,0.4,0.3,0.6c0.1,0.2,0.1,0.5,0.1,0.8v2.8H141.3z"/>
	</g>
</g>
</svg>
