<?xml version="1.0" encoding="utf-8"?>
<!-- Generator: Adobe Illustrator 23.0.0, SVG Export Plug-In . SVG Version: 6.00 Build 0)  -->
<svg version="1.1" id="Layer_1" xmlns="http://www.w3.org/2000/svg" xmlns:xlink="http://www.w3.org/1999/xlink" x="0px" y="0px"
	 viewBox="0 0 1920 1080" style="enable-background:new 0 0 1920 1080;" xml:space="preserve">
<style type="text/css">
	.st0{fill:#5C3184;}
	.st1{fill:#FFFFFF;}
	.st2{fill:#323670;}
</style>
<g>
	<path class="st0" d="M785.79,416.6c52.98,0.06,94.55,40.22,95,91.78c0.46,52.21-42.08,93.41-96.39,93.37
		c-54.03-0.04-94.29-39.86-94.11-93.11C690.46,455.98,731.38,416.54,785.79,416.6z M840.47,509.46c0-33.42-23.62-58.63-55.38-59.09
		c-30.92-0.45-56.51,26.09-56.43,58.53c0.08,32.28,25.28,58.76,56.25,59.12C816.56,568.39,840.47,543.18,840.47,509.46z"/>
	<path class="st0" d="M661.18,443.9c-7.18,8.39-14.46,16.91-22.5,26.31c-18.07-14.72-37.82-24.64-60.56-17.43
		c-10.19,3.23-20.49,10.5-27.44,18.72c-18.8,22.22-16.69,58.01,2.82,79.56c20.32,22.44,48.32,21.63,86.34-2.7
		c7.23,7.29,14.52,14.63,21.82,21.98c-25.27,36.72-91.29,42.52-129.42,11.38c-41.82-34.16-45.4-98.67-7.65-137.71
		C559.88,407.51,628.5,407.03,661.18,443.9z"/>
	<path class="st0" d="M1331.13,587.6c-11.97,4.55-23.2,10.54-35.16,13.04c-31.33,6.55-55.74-15.52-53.44-47.01
		c1.54-21.13,19.71-36.15,46.63-36.82c13.35-0.33,26.77,1.87,40.46,2.94c4.85-13.71-4.5-27.17-22.82-27.87
		c-14.13-0.54-28.38,2.31-43.62,3.76c0.43,0.34-0.65-0.07-0.85-0.75c-7.69-25.3-15.65-24.37,17.41-31.19
		c14.27-2.94,29.69-3.34,44.17-1.55c25.41,3.15,41.47,20.51,42.87,47c1.53,29.17,0.35,58.49,0.35,88.79c-11.4,0-22.08,0-33.89,0
		C1332.55,594.53,1331.73,590.51,1331.13,587.6z M1301.67,578.72c7.49-3.11,16.8-4.46,21.95-9.82c5-5.2,7.35-14.46,7.51-22.01
		c0.05-2.7-9.47-6.78-15.11-8.07c-6.14-1.41-12.99-1.14-19.29-0.13c-14.1,2.28-20.1,9.77-18.85,21.94
		C1278.94,571.04,1287.23,576.91,1301.67,578.72z"/>
	<path d="M451.03,801.82c-108.64,4.3-232.44-120.07-249.92-246.58c-20.75-150.19,71.31-291.4,216.04-330.99
		c147.92-40.46,291.06,36.66,347.5,156.1c-0.83,0.81-4.55,2.38-5.69,3.13c-2.38-4.07-4.36-7.46-6.76-11.64
		C710.6,299.6,649.96,251.8,569.34,230.42c-161.96-42.96-329.28,64.4-358.51,229.54c-28.52,165.56,99.65,323.96,240.75,333.74
		C451.37,795.57,451.15,799.81,451.03,801.82z"/>
	<path class="st0" d="M1032.3,481.16c-6.58,7.35-13.21,14.76-20.8,23.25c-12-9.93-24.77-18.42-40.43-12.78
		c-7.01,2.52-14.26,7.23-18.87,12.98c-12.56,15.65-10.56,41.63,2.91,55.67c14.16,14.76,30.91,14.26,58.14-2.54
		c6.03,6.72,12.33,13.72,18.66,20.78c-24.1,29.47-71.62,31.89-101.51,4.8c-29.27-26.54-30.74-73.91-3.16-102.47
		C955.4,451.67,1004.25,451.49,1032.3,481.16z"/>
	<path class="st0" d="M1485.62,459.66c0,5.26-0.35,9.19,0.06,13.04c1.58,14.87,0.42,25.41-18.84,29.33
		c-19.97,4.06-24.94,22.84-25.72,41.16c-0.76,17.87-0.17,35.81-0.17,54.76c-11.97,0-23.01,0-35.29,0
		c-0.32-5.37-0.86-10.48-0.88-15.58c-0.08-35.03,0.48-70.07-0.32-105.08c-0.28-12.48,2.99-17.85,15.96-16.03
		c5.97,0.84,12.16,0.14,19.59,0.14c0.56,8.22,1.09,15.8,1.87,27.19C1453.42,471.77,1463.88,457.6,1485.62,459.66z"/>
	<path class="st0" d="M1099.36,598.3c-12.58,0-23.31,0-34.88,0c0-45.56,0-90.4,0-136.07c11.35,0,22.08,0,33.92,0
		c0.62,7.62,1.23,15.16,2.2,26.99c11.4-17.27,21.84-30.74,43.31-29.79c0,10.92,0.4,21.68-0.31,32.36c-0.16,2.38-3.85,5.64-6.57,6.56
		c-29.55,10.06-37.51,20.93-37.65,52.59C1099.3,566.23,1099.36,581.52,1099.36,598.3z"/>
	<path class="st0" d="M1208.95,462.37c0,45.53,0,90.35,0,135.9c-11.54,0-22.26,0-33.94,0c0-45.29,0-90.11,0-135.9
		C1185.93,462.37,1196.65,462.37,1208.95,462.37z"/>
	<path class="st0" d="M1172.46,442.93c0-10.29,0-20.06,0-30.65c12.98,0,25.35,0,38.68,0c0,10.01,0,19.78,0,30.65
		C1198.88,442.93,1186.5,442.93,1172.46,442.93z"/>
	<path class="st1" d="M668.09,786.68c-7.3,9.1-16.42,8.85-24.15,2.18c-6.3-5.43-6.2-13.15,0.95-19.25c4.67-0.65,9.4-2.08,14-1.74
		c4.83,0.36,9.53,2.42,14.29,3.74C671.48,776.63,669.79,781.66,668.09,786.68z"/>
	<path d="M719.57,701.89c24.8-26.42,40.3-58.74,43.97-69.59c0.57-0.04,2.77,0,4.05,0c-2.14,19.06-28.97,61.68-43.97,70.89
		C721.72,702.64,720.95,702.31,719.57,701.89z"/>
	<path class="st1" d="M840.47,509.46c0,33.72-23.91,58.92-55.55,58.56c-30.97-0.36-56.17-26.84-56.25-59.12
		c-0.08-32.44,25.51-58.98,56.43-58.53C816.86,450.84,840.47,476.04,840.47,509.46z"/>
	<g>
		<path class="st2" d="M542.97,792.1c-3.11,1.82-6.87,2.73-11.26,2.73c-3.46,0-6.68-0.68-9.66-2.03c-2.98-1.35-5.57-3.16-7.76-5.42
			c-2.19-2.26-3.9-4.9-5.14-7.92c-1.23-3.02-1.85-6.22-1.85-9.61v-0.19c0-3.39,0.62-6.6,1.85-9.61c1.23-3.02,2.94-5.69,5.14-8.01
			c2.19-2.32,4.78-4.16,7.76-5.51c2.98-1.35,6.2-2.03,9.66-2.03c2.26,0,4.32,0.24,6.17,0.72c1.85,0.48,3.57,1.14,5.14,1.97
			c1.57,0.83,3,1.79,4.29,2.86c1.29,1.07,2.5,2.2,3.63,3.4l-3.3,3.39c-2.07-2.13-4.37-3.99-6.88-5.56
			c-2.51-1.57-5.56-2.36-9.14-2.36c-2.76,0-5.32,0.53-7.68,1.59c-2.36,1.06-4.4,2.52-6.13,4.36c-1.73,1.85-3.09,4.02-4.1,6.52
			c-1.01,2.5-1.51,5.19-1.51,8.07v0.19c0,2.88,0.52,5.58,1.55,8.11c1.04,2.53,2.45,4.74,4.24,6.61c1.79,1.88,3.88,3.34,6.27,4.41
			c2.39,1.06,4.96,1.59,7.73,1.59c3.39,0,6.42-0.77,9.09-2.31c2.67-1.54,5.01-3.44,7.02-5.7l3.2,2.83
			C548.86,787.99,546.08,790.28,542.97,792.1z"/>
		<path class="st2" d="M589.86,749.98c-2.77,0-5.4,0.52-7.92,1.55c-2.51,1.04-4.73,2.58-6.64,4.62c-1.92,2.04-3.44,4.56-4.57,7.54
			c-1.13,2.98-1.7,6.42-1.7,10.32v19.69h-4.62v-48.06h4.62v13.66c0.94-2.14,2.13-4.11,3.58-5.94c1.44-1.82,3.08-3.38,4.9-4.67
			c1.82-1.29,3.82-2.26,5.98-2.92c2.17-0.66,4.44-0.96,6.83-0.9v5.09H589.86z"/>
		<path class="st2" d="M603.34,779.53c1.13,2.31,2.55,4.28,4.25,5.91c1.7,1.63,3.64,2.86,5.81,3.7c2.17,0.84,4.45,1.27,6.85,1.27
			c3.78,0,6.97-0.72,9.59-2.17c2.61-1.44,4.93-3.23,6.95-5.37l3.2,2.83c-2.45,2.64-5.24,4.82-8.35,6.55
			c-3.12,1.73-6.97,2.59-11.57,2.59c-3.15,0-6.16-0.6-9.02-1.79c-2.87-1.19-5.39-2.89-7.56-5.09c-2.17-2.2-3.89-4.84-5.15-7.92
			c-1.26-3.08-1.89-6.5-1.89-10.27v-0.19c0-3.45,0.58-6.71,1.74-9.75c1.16-3.05,2.76-5.7,4.81-7.96c2.04-2.26,4.44-4.05,7.21-5.37
			c2.76-1.32,5.78-1.98,9.05-1.98c3.39,0,6.44,0.65,9.14,1.93c2.7,1.29,5.01,3.06,6.93,5.32c1.92,2.26,3.39,4.92,4.43,7.96
			c1.04,3.05,1.55,6.36,1.55,9.94v0.19c0,0.31,0,0.6,0,0.85c0,0.19-0.03,0.47-0.09,0.85h-39.86
			C601.54,774.56,602.2,777.22,603.34,779.53z M636.41,767.41c-0.19-2.45-0.68-4.79-1.46-7.02c-0.79-2.23-1.89-4.21-3.31-5.94
			c-1.42-1.73-3.17-3.11-5.24-4.15c-2.08-1.04-4.5-1.55-7.28-1.55c-2.39,0-4.63,0.47-6.71,1.41c-2.08,0.94-3.89,2.25-5.43,3.91
			c-1.54,1.66-2.82,3.64-3.83,5.94c-1.01,2.29-1.61,4.76-1.79,7.4H636.41z"/>
		<path class="st2" d="M687.76,793.7v-8.01c-0.82,1.13-1.81,2.25-2.97,3.35c-1.16,1.1-2.5,2.07-4.01,2.92
			c-1.51,0.85-3.22,1.54-5.14,2.07c-1.92,0.53-4.01,0.8-6.27,0.8c-2.26,0-4.49-0.32-6.69-0.94c-2.2-0.63-4.18-1.57-5.94-2.83
			c-1.76-1.26-3.19-2.83-4.29-4.71c-1.1-1.89-1.65-4.08-1.65-6.6v-0.19c0-2.51,0.52-4.74,1.56-6.69c1.04-1.95,2.46-3.58,4.29-4.9
			c1.82-1.32,4.02-2.32,6.6-3.02c2.58-0.69,5.43-1.04,8.58-1.04c3.39,0,6.31,0.19,8.76,0.57c2.45,0.38,4.84,0.88,7.16,1.51v-2.06
			c0-4.87-1.4-8.53-4.19-10.96c-2.8-2.44-6.68-3.65-11.64-3.65c-2.95,0-5.65,0.36-8.1,1.08c-2.45,0.72-4.78,1.65-6.97,2.78
			l-1.7-4.06c2.64-1.28,5.31-2.31,8.01-3.08c2.7-0.77,5.72-1.16,9.05-1.16c6.22,0,11.12,1.57,14.7,4.71
			c3.58,3.14,5.37,7.85,5.37,14.14v29.97H687.76z M687.86,770.23c-2.01-0.5-4.37-0.99-7.07-1.46c-2.7-0.47-5.78-0.7-9.23-0.7
			c-5.09,0-9,1.02-11.73,3.05c-2.73,2.03-4.1,4.74-4.1,8.12v0.19c0,1.75,0.38,3.3,1.13,4.65c0.75,1.35,1.77,2.49,3.06,3.42
			c1.29,0.94,2.78,1.66,4.48,2.16c1.7,0.5,3.45,0.75,5.28,0.75c2.45,0,4.77-0.36,6.97-1.08c2.2-0.72,4.13-1.72,5.8-3
			c1.66-1.28,2.98-2.83,3.96-4.65c0.97-1.81,1.46-3.82,1.46-6.01V770.23z"/>
		<path class="st2" d="M728.52,794.13c-1.22,0.28-2.59,0.42-4.1,0.42c-1.88,0-3.64-0.25-5.28-0.75c-1.63-0.5-3.06-1.3-4.29-2.4
			c-1.22-1.1-2.18-2.48-2.87-4.15c-0.69-1.66-1.04-3.63-1.04-5.89v-31.47h-6.97v-4.24h6.97v-15.36h4.62v15.36h16.87v4.24h-16.87
			v30.93c0,3.45,0.9,5.86,2.69,7.24s4.1,2.07,6.93,2.07c1.19,0,2.32-0.12,3.39-0.36c1.07-0.24,2.29-0.65,3.67-1.25v4.33
			C730.99,793.42,729.75,793.85,728.52,794.13z"/>
		<path class="st2" d="M746.19,733.11v-6.31h5.75v6.31H746.19z M746.75,793.7v-48.06h4.62v48.06H746.75z"/>
		<path class="st2" d="M790.2,794.08h-3.96l-21.58-48.44h5.37l18.19,42.88l18.38-42.88h5.18L790.2,794.08z"/>
		<path class="st2" d="M825.16,779.53c1.13,2.31,2.55,4.28,4.25,5.91c1.7,1.63,3.64,2.86,5.81,3.7c2.17,0.84,4.45,1.27,6.85,1.27
			c3.78,0,6.97-0.72,9.59-2.17c2.61-1.44,4.93-3.23,6.95-5.37l3.2,2.83c-2.45,2.64-5.24,4.82-8.35,6.55
			c-3.12,1.73-6.97,2.59-11.57,2.59c-3.15,0-6.16-0.6-9.02-1.79c-2.87-1.19-5.39-2.89-7.56-5.09c-2.17-2.2-3.89-4.84-5.15-7.92
			c-1.26-3.08-1.89-6.5-1.89-10.27v-0.19c0-3.45,0.58-6.71,1.74-9.75c1.16-3.05,2.76-5.7,4.81-7.96c2.04-2.26,4.44-4.05,7.21-5.37
			c2.76-1.32,5.78-1.98,9.05-1.98c3.39,0,6.44,0.65,9.14,1.93c2.7,1.29,5.01,3.06,6.93,5.32c1.92,2.26,3.39,4.92,4.43,7.96
			c1.04,3.05,1.55,6.36,1.55,9.94v0.19c0,0.31,0,0.6,0,0.85c0,0.19-0.03,0.47-0.09,0.85h-39.86
			C823.37,774.56,824.03,777.22,825.16,779.53z M858.23,767.41c-0.19-2.45-0.68-4.79-1.46-7.02c-0.79-2.23-1.89-4.21-3.31-5.94
			c-1.42-1.73-3.17-3.11-5.24-4.15c-2.08-1.04-4.5-1.55-7.28-1.55c-2.39,0-4.63,0.47-6.71,1.41c-2.08,0.94-3.89,2.25-5.43,3.91
			c-1.54,1.66-2.82,3.64-3.83,5.94c-1.01,2.29-1.61,4.76-1.79,7.4H858.23z"/>
		<path class="st2" d="M950.63,780.18c-1.35,3.11-3.13,5.75-5.32,7.92c-2.2,2.17-4.7,3.83-7.49,4.99c-2.8,1.16-5.64,1.74-8.53,1.74
			c-2.39,0-4.59-0.32-6.6-0.94c-2.01-0.63-3.82-1.48-5.42-2.54c-1.6-1.07-3.05-2.29-4.33-3.68c-1.29-1.38-2.43-2.83-3.44-4.33v10.37
			h-4.62v-68.79h4.62v31.47c1-1.57,2.17-3.08,3.49-4.52c1.32-1.45,2.78-2.7,4.38-3.77c1.6-1.07,3.39-1.93,5.37-2.59
			c1.98-0.66,4.16-0.99,6.55-0.99c2.89,0,5.73,0.57,8.53,1.7c2.79,1.13,5.29,2.76,7.49,4.9c2.2,2.14,3.97,4.76,5.32,7.87
			c1.35,3.11,2.03,6.61,2.03,10.51v0.19C952.65,773.57,951.98,777.07,950.63,780.18z M947.75,769.67c0-3.14-0.51-6-1.51-8.57
			c-1.01-2.58-2.38-4.76-4.11-6.55c-1.73-1.79-3.75-3.17-6.05-4.15c-2.3-0.97-4.71-1.46-7.23-1.46c-2.52,0-4.96,0.5-7.32,1.51
			c-2.36,1.01-4.46,2.42-6.28,4.24c-1.83,1.82-3.29,3.99-4.39,6.5c-1.1,2.51-1.65,5.31-1.65,8.39v0.19c0,3.08,0.55,5.89,1.65,8.43
			c1.1,2.54,2.57,4.71,4.39,6.5c1.83,1.79,3.92,3.19,6.28,4.19c2.36,1.01,4.8,1.51,7.32,1.51c2.64,0,5.12-0.47,7.42-1.41
			c2.3-0.94,4.3-2.29,6-4.05c1.7-1.76,3.04-3.91,4.01-6.45c0.98-2.54,1.46-5.42,1.46-8.62V769.67z"/>
		<path class="st2" d="M1002.69,793.7v-8.95c-1.63,2.83-3.83,5.22-6.6,7.16c-2.77,1.95-6.35,2.92-10.74,2.92
			c-3.02,0-5.72-0.49-8.1-1.46c-2.39-0.97-4.41-2.34-6.08-4.1c-1.66-1.76-2.92-3.85-3.77-6.27c-0.85-2.42-1.27-5.07-1.27-7.96v-29.4
			h4.62v28.55c0,4.96,1.32,8.94,3.96,11.92c2.64,2.98,6.41,4.48,11.31,4.48c2.32,0,4.51-0.42,6.55-1.27
			c2.04-0.85,3.82-2.03,5.32-3.53s2.69-3.31,3.53-5.42c0.85-2.1,1.27-4.41,1.27-6.93v-27.8h4.62v48.06H1002.69z"/>
		<path class="st2" d="M1055.7,786.42c-0.85,1.72-2.03,3.2-3.53,4.42c-1.51,1.22-3.27,2.16-5.28,2.82c-2.01,0.66-4.18,0.99-6.5,0.99
			c-3.52,0-7.04-0.66-10.55-1.97c-3.52-1.32-6.57-3.01-9.14-5.09l2.73-3.68c2.64,2.01,5.4,3.57,8.29,4.66
			c2.89,1.1,5.87,1.65,8.95,1.65c3.27,0,6.01-0.81,8.25-2.45c2.23-1.63,3.35-3.86,3.35-6.68v-0.19c0-1.38-0.35-2.57-1.04-3.57
			c-0.69-1-1.63-1.88-2.83-2.63c-1.19-0.75-2.54-1.38-4.05-1.88c-1.51-0.5-3.11-1-4.81-1.5c-1.95-0.56-3.91-1.16-5.89-1.79
			c-1.98-0.63-3.75-1.43-5.32-2.4c-1.57-0.97-2.84-2.18-3.82-3.62c-0.98-1.44-1.46-3.23-1.46-5.36v-0.19c0-1.94,0.39-3.71,1.18-5.31
			c0.79-1.6,1.87-2.99,3.25-4.18c1.38-1.19,3.05-2.12,4.99-2.77c1.95-0.66,4.08-0.99,6.41-0.99c2.89,0,5.86,0.48,8.91,1.45
			c3.05,0.96,5.76,2.27,8.15,3.93l-2.45,3.86c-2.2-1.45-4.57-2.61-7.11-3.49c-2.54-0.88-5.1-1.32-7.68-1.32
			c-3.33,0-5.98,0.8-7.96,2.4c-1.98,1.6-2.97,3.59-2.97,5.97v0.19c0,1.32,0.38,2.46,1.13,3.43c0.75,0.97,1.74,1.8,2.97,2.49
			c1.22,0.69,2.65,1.3,4.29,1.83c1.63,0.53,3.3,1.05,4.99,1.55c1.95,0.56,3.86,1.18,5.75,1.83c1.89,0.66,3.58,1.5,5.09,2.54
			c1.51,1.04,2.72,2.27,3.63,3.71c0.91,1.44,1.37,3.23,1.37,5.36v0.19C1056.97,782.77,1056.55,784.69,1055.7,786.42z"/>
		<path class="st2" d="M1071.77,733.11v-6.31h5.75v6.31H1071.77z M1072.33,793.7v-48.06h4.62v48.06H1072.33z"/>
		<path class="st2" d="M1131.7,793.7v-28.55c0-4.96-1.32-8.94-3.96-11.92c-2.64-2.98-6.41-4.48-11.31-4.48
			c-2.39,0-4.59,0.42-6.6,1.27c-2.01,0.85-3.77,2.03-5.28,3.53c-1.51,1.51-2.68,3.31-3.53,5.42c-0.85,2.11-1.27,4.41-1.27,6.93v27.8
			h-4.62v-48.06h4.62v8.95c1.63-2.83,3.83-5.21,6.6-7.16c2.76-1.95,6.34-2.92,10.74-2.92c3.02,0,5.72,0.49,8.11,1.46
			c2.39,0.98,4.41,2.34,6.08,4.1c1.67,1.76,2.92,3.85,3.77,6.27c0.85,2.42,1.27,5.07,1.27,7.96v29.4H1131.7z"/>
		<path class="st2" d="M1156.49,779.53c1.13,2.31,2.55,4.28,4.25,5.91c1.7,1.63,3.64,2.86,5.81,3.7c2.17,0.84,4.46,1.27,6.85,1.27
			c3.78,0,6.98-0.72,9.59-2.17c2.61-1.44,4.93-3.23,6.95-5.37l3.2,2.83c-2.45,2.64-5.24,4.82-8.35,6.55
			c-3.12,1.73-6.97,2.59-11.57,2.59c-3.15,0-6.15-0.6-9.02-1.79c-2.86-1.19-5.38-2.89-7.56-5.09c-2.17-2.2-3.89-4.84-5.15-7.92
			c-1.26-3.08-1.89-6.5-1.89-10.27v-0.19c0-3.45,0.58-6.71,1.74-9.75c1.16-3.05,2.76-5.7,4.81-7.96c2.04-2.26,4.44-4.05,7.21-5.37
			c2.76-1.32,5.78-1.98,9.05-1.98c3.39,0,6.44,0.65,9.14,1.93c2.7,1.29,5.01,3.06,6.93,5.32c1.92,2.26,3.39,4.92,4.43,7.96
			c1.04,3.05,1.56,6.36,1.56,9.94v0.19c0,0.31,0,0.6,0,0.85c0,0.19-0.03,0.47-0.09,0.85h-39.86
			C1154.69,774.56,1155.35,777.22,1156.49,779.53z M1189.56,767.41c-0.19-2.45-0.68-4.79-1.47-7.02c-0.79-2.23-1.89-4.21-3.31-5.94
			c-1.42-1.73-3.17-3.11-5.24-4.15s-4.5-1.55-7.28-1.55c-2.39,0-4.63,0.47-6.71,1.41c-2.08,0.94-3.89,2.25-5.43,3.91
			c-1.54,1.66-2.82,3.64-3.83,5.94c-1.01,2.29-1.61,4.76-1.79,7.4H1189.56z"/>
		<path class="st2" d="M1238.79,786.42c-0.85,1.72-2.03,3.2-3.53,4.42c-1.51,1.22-3.27,2.16-5.28,2.82
			c-2.01,0.66-4.18,0.99-6.5,0.99c-3.52,0-7.04-0.66-10.56-1.97s-6.56-3.01-9.14-5.09l2.73-3.68c2.64,2.01,5.4,3.57,8.29,4.66
			c2.89,1.1,5.87,1.65,8.95,1.65c3.27,0,6.01-0.81,8.25-2.45c2.23-1.63,3.35-3.86,3.35-6.68v-0.19c0-1.38-0.35-2.57-1.04-3.57
			c-0.69-1-1.63-1.88-2.83-2.63c-1.2-0.75-2.55-1.38-4.05-1.88c-1.51-0.5-3.11-1-4.81-1.5c-1.95-0.56-3.91-1.16-5.89-1.79
			c-1.98-0.63-3.76-1.43-5.33-2.4c-1.57-0.97-2.84-2.18-3.82-3.62c-0.98-1.44-1.46-3.23-1.46-5.36v-0.19c0-1.94,0.39-3.71,1.18-5.31
			c0.78-1.6,1.87-2.99,3.25-4.18c1.38-1.19,3.05-2.12,4.99-2.77c1.95-0.66,4.08-0.99,6.41-0.99c2.89,0,5.86,0.48,8.9,1.45
			c3.05,0.96,5.76,2.27,8.15,3.93l-2.45,3.86c-2.2-1.45-4.57-2.61-7.12-3.49c-2.54-0.88-5.1-1.32-7.68-1.32
			c-3.33,0-5.98,0.8-7.96,2.4c-1.98,1.6-2.97,3.59-2.97,5.97v0.19c0,1.32,0.38,2.46,1.13,3.43c0.75,0.97,1.74,1.8,2.97,2.49
			c1.22,0.69,2.65,1.3,4.29,1.83c1.63,0.53,3.3,1.05,4.99,1.55c1.95,0.56,3.86,1.18,5.75,1.83c1.88,0.66,3.58,1.5,5.09,2.54
			c1.51,1.04,2.72,2.27,3.63,3.71c0.91,1.44,1.37,3.23,1.37,5.36v0.19C1240.07,782.77,1239.64,784.69,1238.79,786.42z"/>
		<path class="st2" d="M1284.69,786.42c-0.85,1.72-2.03,3.2-3.53,4.42c-1.51,1.22-3.27,2.16-5.28,2.82
			c-2.01,0.66-4.18,0.99-6.5,0.99c-3.52,0-7.04-0.66-10.56-1.97s-6.56-3.01-9.14-5.09l2.73-3.68c2.64,2.01,5.4,3.57,8.29,4.66
			c2.89,1.1,5.87,1.65,8.95,1.65c3.27,0,6.01-0.81,8.25-2.45c2.23-1.63,3.35-3.86,3.35-6.68v-0.19c0-1.38-0.35-2.57-1.04-3.57
			c-0.69-1-1.63-1.88-2.83-2.63c-1.2-0.75-2.55-1.38-4.05-1.88c-1.51-0.5-3.11-1-4.81-1.5c-1.95-0.56-3.91-1.16-5.89-1.79
			c-1.98-0.63-3.76-1.43-5.33-2.4c-1.57-0.97-2.84-2.18-3.82-3.62c-0.98-1.44-1.46-3.23-1.46-5.36v-0.19c0-1.94,0.39-3.71,1.18-5.31
			c0.78-1.6,1.87-2.99,3.25-4.18c1.38-1.19,3.05-2.12,4.99-2.77c1.95-0.66,4.08-0.99,6.41-0.99c2.89,0,5.86,0.48,8.9,1.45
			c3.05,0.96,5.76,2.27,8.15,3.93l-2.45,3.86c-2.2-1.45-4.57-2.61-7.12-3.49c-2.54-0.88-5.1-1.32-7.68-1.32
			c-3.33,0-5.98,0.8-7.96,2.4c-1.98,1.6-2.97,3.59-2.97,5.97v0.19c0,1.32,0.38,2.46,1.13,3.43c0.75,0.97,1.74,1.8,2.97,2.49
			c1.22,0.69,2.65,1.3,4.29,1.83c1.63,0.53,3.3,1.05,4.99,1.55c1.95,0.56,3.86,1.18,5.75,1.83c1.88,0.66,3.58,1.5,5.09,2.54
			c1.51,1.04,2.72,2.27,3.63,3.71c0.91,1.44,1.37,3.23,1.37,5.36v0.19C1285.96,782.77,1285.54,784.69,1284.69,786.42z"/>
		<path class="st2" d="M1332.51,779.53c1.13,2.31,2.55,4.28,4.25,5.91c1.7,1.63,3.64,2.86,5.81,3.7c2.17,0.84,4.46,1.27,6.85,1.27
			c3.78,0,6.98-0.72,9.59-2.17c2.61-1.44,4.93-3.23,6.94-5.37l3.2,2.83c-2.45,2.64-5.24,4.82-8.35,6.55
			c-3.12,1.73-6.97,2.59-11.57,2.59c-3.15,0-6.15-0.6-9.02-1.79c-2.86-1.19-5.38-2.89-7.56-5.09c-2.17-2.2-3.89-4.84-5.15-7.92
			c-1.26-3.08-1.89-6.5-1.89-10.27v-0.19c0-3.45,0.58-6.71,1.74-9.75c1.16-3.05,2.76-5.7,4.81-7.96c2.04-2.26,4.44-4.05,7.21-5.37
			c2.76-1.32,5.78-1.98,9.05-1.98c3.39,0,6.44,0.65,9.14,1.93c2.7,1.29,5.01,3.06,6.93,5.32c1.92,2.26,3.39,4.92,4.43,7.96
			c1.04,3.05,1.56,6.36,1.56,9.94v0.19c0,0.31,0,0.6,0,0.85c0,0.19-0.03,0.47-0.09,0.85h-39.86
			C1330.72,774.56,1331.38,777.22,1332.51,779.53z M1365.59,767.41c-0.19-2.45-0.68-4.79-1.47-7.02c-0.79-2.23-1.89-4.21-3.31-5.94
			c-1.42-1.73-3.17-3.11-5.24-4.15s-4.5-1.55-7.28-1.55c-2.39,0-4.63,0.47-6.71,1.41c-2.08,0.94-3.89,2.25-5.43,3.91
			c-1.54,1.66-2.82,3.64-3.83,5.94c-1.01,2.29-1.61,4.76-1.79,7.4H1365.59z"/>
		<path class="st2" d="M1416.33,792.1c-3.11,1.82-6.86,2.73-11.26,2.73c-3.45,0-6.68-0.68-9.66-2.03c-2.98-1.35-5.57-3.16-7.76-5.42
			c-2.19-2.26-3.9-4.9-5.14-7.92c-1.23-3.02-1.85-6.22-1.85-9.61v-0.19c0-3.39,0.62-6.6,1.85-9.61c1.23-3.02,2.95-5.69,5.14-8.01
			c2.19-2.32,4.78-4.16,7.76-5.51c2.98-1.35,6.2-2.03,9.66-2.03c2.26,0,4.32,0.24,6.17,0.72c1.85,0.48,3.56,1.14,5.13,1.97
			c1.57,0.83,3,1.79,4.29,2.86c1.29,1.07,2.5,2.2,3.63,3.4l-3.3,3.39c-2.07-2.13-4.37-3.99-6.88-5.56
			c-2.51-1.57-5.56-2.36-9.14-2.36c-2.77,0-5.32,0.53-7.68,1.59c-2.36,1.06-4.4,2.52-6.13,4.36c-1.73,1.85-3.09,4.02-4.1,6.52
			c-1.01,2.5-1.51,5.19-1.51,8.07v0.19c0,2.88,0.52,5.58,1.56,8.11c1.04,2.53,2.45,4.74,4.24,6.61c1.79,1.88,3.88,3.34,6.27,4.41
			c2.39,1.06,4.96,1.59,7.73,1.59c3.39,0,6.42-0.77,9.09-2.31c2.67-1.54,5.01-3.44,7.02-5.7l3.2,2.83
			C1422.22,787.99,1419.44,790.28,1416.33,792.1z"/>
		<path class="st2" d="M1480.6,779.29c-1.22,3.02-2.95,5.69-5.18,8.01c-2.23,2.32-4.85,4.16-7.87,5.51
			c-3.02,1.35-6.31,2.03-9.89,2.03c-3.58,0-6.86-0.68-9.85-2.03c-2.98-1.35-5.58-3.16-7.77-5.42c-2.2-2.26-3.91-4.9-5.14-7.92
			c-1.22-3.02-1.84-6.22-1.84-9.61v-0.19c0-3.39,0.61-6.6,1.84-9.61s2.95-5.69,5.18-8.01c2.23-2.32,4.85-4.16,7.87-5.51
			c3.02-1.35,6.32-2.03,9.9-2.03c3.58,0,6.86,0.68,9.85,2.03c2.98,1.35,5.58,3.16,7.78,5.42c2.2,2.26,3.91,4.9,5.14,7.92
			c1.22,3.02,1.84,6.22,1.84,9.61v0.19C1482.43,773.07,1481.82,776.27,1480.6,779.29z M1477.54,769.67c0-2.88-0.51-5.58-1.51-8.11
			c-1.01-2.53-2.41-4.74-4.21-6.61c-1.8-1.88-3.91-3.35-6.34-4.41c-2.43-1.06-5.04-1.59-7.81-1.59c-2.84,0-5.48,0.55-7.91,1.64
			c-2.43,1.1-4.51,2.57-6.25,4.41c-1.74,1.84-3.09,4.02-4.07,6.52c-0.98,2.5-1.47,5.16-1.47,7.97v0.19c0,2.88,0.51,5.58,1.51,8.11
			c1.01,2.53,2.41,4.74,4.21,6.61c1.8,1.88,3.91,3.34,6.34,4.41c2.43,1.06,5.03,1.59,7.81,1.59c2.84,0,5.48-0.55,7.91-1.64
			c2.43-1.09,4.51-2.56,6.25-4.41c1.74-1.84,3.09-4.02,4.07-6.52c0.98-2.5,1.47-5.16,1.47-7.97V769.67z"/>
		<path class="st2" d="M1527.53,786.42c-0.85,1.72-2.03,3.2-3.53,4.42c-1.51,1.22-3.27,2.16-5.28,2.82
			c-2.01,0.66-4.18,0.99-6.5,0.99c-3.52,0-7.04-0.66-10.56-1.97s-6.56-3.01-9.14-5.09l2.73-3.68c2.64,2.01,5.4,3.57,8.29,4.66
			c2.89,1.1,5.87,1.65,8.95,1.65c3.27,0,6.01-0.81,8.25-2.45c2.23-1.63,3.35-3.86,3.35-6.68v-0.19c0-1.38-0.35-2.57-1.04-3.57
			c-0.69-1-1.63-1.88-2.83-2.63c-1.2-0.75-2.55-1.38-4.05-1.88c-1.51-0.5-3.11-1-4.81-1.5c-1.95-0.56-3.91-1.16-5.89-1.79
			c-1.98-0.63-3.76-1.43-5.33-2.4c-1.57-0.97-2.84-2.18-3.82-3.62c-0.98-1.44-1.46-3.23-1.46-5.36v-0.19c0-1.94,0.39-3.71,1.18-5.31
			c0.78-1.6,1.87-2.99,3.25-4.18c1.38-1.19,3.05-2.12,4.99-2.77c1.95-0.66,4.08-0.99,6.41-0.99c2.89,0,5.86,0.48,8.9,1.45
			c3.05,0.96,5.76,2.27,8.15,3.93l-2.45,3.86c-2.2-1.45-4.57-2.61-7.12-3.49c-2.54-0.88-5.1-1.32-7.68-1.32
			c-3.33,0-5.98,0.8-7.96,2.4c-1.98,1.6-2.97,3.59-2.97,5.97v0.19c0,1.32,0.38,2.46,1.13,3.43c0.75,0.97,1.74,1.8,2.97,2.49
			c1.22,0.69,2.65,1.3,4.29,1.83c1.63,0.53,3.3,1.05,4.99,1.55c1.95,0.56,3.86,1.18,5.75,1.83c1.88,0.66,3.58,1.5,5.09,2.54
			c1.51,1.04,2.72,2.27,3.63,3.71c0.91,1.44,1.37,3.23,1.37,5.36v0.19C1528.8,782.77,1528.38,784.69,1527.53,786.42z"/>
		<path class="st2" d="M1563.95,795.4c-2.14,5.03-4.48,8.56-7.02,10.6c-2.55,2.04-5.55,3.06-9,3.06c-1.82,0-3.46-0.18-4.9-0.53
			c-1.45-0.36-2.99-0.88-4.62-1.59l1.6-4.1c1.26,0.63,2.48,1.08,3.68,1.37c1.19,0.28,2.7,0.42,4.52,0.42c1.26,0,2.42-0.19,3.49-0.56
			c1.07-0.38,2.07-1.02,3.02-1.93c0.94-0.91,1.85-2.09,2.73-3.53c0.88-1.44,1.76-3.2,2.64-5.27l-23.09-47.7h5.37l19.98,42.97
			l17.34-42.97h5.09L1563.95,795.4z"/>
		<path class="st2" d="M1626.47,786.42c-0.85,1.72-2.03,3.2-3.53,4.42c-1.51,1.22-3.27,2.16-5.28,2.82
			c-2.01,0.66-4.18,0.99-6.5,0.99c-3.52,0-7.04-0.66-10.56-1.97c-3.52-1.32-6.56-3.01-9.14-5.09l2.73-3.68
			c2.64,2.01,5.4,3.57,8.29,4.66c2.89,1.1,5.87,1.65,8.95,1.65c3.26,0,6.01-0.81,8.25-2.45c2.23-1.63,3.35-3.86,3.35-6.68v-0.19
			c0-1.38-0.35-2.57-1.04-3.57c-0.69-1-1.63-1.88-2.83-2.63c-1.2-0.75-2.55-1.38-4.05-1.88c-1.51-0.5-3.11-1-4.81-1.5
			c-1.95-0.56-3.91-1.16-5.89-1.79c-1.98-0.63-3.76-1.43-5.33-2.4c-1.57-0.97-2.84-2.18-3.82-3.62c-0.98-1.44-1.46-3.23-1.46-5.36
			v-0.19c0-1.94,0.39-3.71,1.18-5.31c0.78-1.6,1.87-2.99,3.25-4.18c1.38-1.19,3.05-2.12,4.99-2.77c1.95-0.66,4.08-0.99,6.41-0.99
			c2.89,0,5.86,0.48,8.9,1.45c3.05,0.96,5.76,2.27,8.15,3.93l-2.45,3.86c-2.2-1.45-4.57-2.61-7.12-3.49
			c-2.54-0.88-5.1-1.32-7.68-1.32c-3.33,0-5.98,0.8-7.96,2.4c-1.98,1.6-2.97,3.59-2.97,5.97v0.19c0,1.32,0.38,2.46,1.13,3.43
			c0.75,0.97,1.74,1.8,2.97,2.49c1.22,0.69,2.65,1.3,4.29,1.83c1.63,0.53,3.3,1.05,4.99,1.55c1.95,0.56,3.86,1.18,5.75,1.83
			c1.88,0.66,3.58,1.5,5.09,2.54c1.51,1.04,2.72,2.27,3.63,3.71s1.37,3.23,1.37,5.36v0.19
			C1627.75,782.77,1627.32,784.69,1626.47,786.42z"/>
		<path class="st2" d="M1661.62,794.13c-1.23,0.28-2.59,0.42-4.1,0.42c-1.88,0-3.64-0.25-5.28-0.75c-1.63-0.5-3.06-1.3-4.29-2.4
			c-1.22-1.1-2.18-2.48-2.87-4.15c-0.69-1.66-1.04-3.63-1.04-5.89v-31.47h-6.97v-4.24h6.97v-15.36h4.62v15.36h16.87v4.24h-16.87
			v30.93c0,3.45,0.89,5.86,2.68,7.24s4.1,2.07,6.93,2.07c1.19,0,2.32-0.12,3.39-0.36c1.07-0.24,2.29-0.65,3.68-1.25v4.33
			C1664.09,793.42,1662.85,793.85,1661.62,794.13z"/>
		<path class="st2" d="M1681.37,779.53c1.13,2.31,2.55,4.28,4.25,5.91c1.7,1.63,3.64,2.86,5.81,3.7c2.17,0.84,4.46,1.27,6.85,1.27
			c3.78,0,6.98-0.72,9.59-2.17c2.61-1.44,4.93-3.23,6.94-5.37l3.2,2.83c-2.45,2.64-5.24,4.82-8.35,6.55
			c-3.12,1.73-6.97,2.59-11.57,2.59c-3.15,0-6.15-0.6-9.02-1.79c-2.86-1.19-5.38-2.89-7.56-5.09c-2.17-2.2-3.89-4.84-5.15-7.92
			c-1.26-3.08-1.89-6.5-1.89-10.27v-0.19c0-3.45,0.58-6.71,1.74-9.75c1.16-3.05,2.76-5.7,4.81-7.96c2.04-2.26,4.44-4.05,7.21-5.37
			c2.76-1.32,5.78-1.98,9.05-1.98c3.39,0,6.44,0.65,9.14,1.93c2.7,1.29,5.01,3.06,6.93,5.32c1.92,2.26,3.39,4.92,4.43,7.96
			c1.04,3.05,1.56,6.36,1.56,9.94v0.19c0,0.31,0,0.6,0,0.85c0,0.19-0.03,0.47-0.09,0.85h-39.86
			C1679.57,774.56,1680.24,777.22,1681.37,779.53z M1714.44,767.41c-0.19-2.45-0.68-4.79-1.47-7.02c-0.79-2.23-1.89-4.21-3.31-5.94
			c-1.42-1.73-3.17-3.11-5.24-4.15s-4.5-1.55-7.28-1.55c-2.39,0-4.63,0.47-6.71,1.41c-2.08,0.94-3.89,2.25-5.43,3.91
			c-1.54,1.66-2.82,3.64-3.83,5.94c-1.01,2.29-1.61,4.76-1.79,7.4H1714.44z"/>
		<path class="st2" d="M1800.85,793.7v-28.55c0-5.21-1.26-9.25-3.77-12.11c-2.51-2.86-6-4.29-10.46-4.29c-2.01,0-3.94,0.38-5.8,1.13
			c-1.85,0.75-3.47,1.85-4.85,3.3c-1.38,1.45-2.48,3.22-3.3,5.32c-0.82,2.11-1.22,4.51-1.22,7.21v27.99h-4.62v-28.84
			c0-5.03-1.26-8.97-3.77-11.83c-2.51-2.86-5.94-4.29-10.27-4.29c-2.14,0-4.15,0.44-6.03,1.32c-1.88,0.88-3.52,2.11-4.9,3.67
			c-1.38,1.57-2.47,3.39-3.25,5.47c-0.79,2.07-1.18,4.33-1.18,6.79v27.7h-4.62v-48.06h4.62v8.57c0.75-1.26,1.62-2.46,2.59-3.63
			c0.97-1.16,2.09-2.2,3.35-3.11c1.26-0.91,2.72-1.63,4.38-2.17c1.66-0.53,3.56-0.8,5.7-0.8c2.07,0,3.97,0.28,5.7,0.85
			c1.73,0.57,3.25,1.32,4.57,2.26c1.32,0.94,2.47,2.04,3.44,3.3c0.97,1.26,1.81,2.58,2.5,3.96c0.75-1.32,1.66-2.61,2.73-3.86
			c1.07-1.26,2.31-2.37,3.72-3.35c1.41-0.97,3.02-1.74,4.81-2.31c1.79-0.57,3.82-0.85,6.08-0.85c2.83,0,5.39,0.49,7.68,1.46
			c2.29,0.98,4.24,2.32,5.84,4.05c1.6,1.73,2.83,3.83,3.67,6.31c0.85,2.48,1.27,5.23,1.27,8.25v29.12H1800.85z"/>
	</g>
</g>
</svg>
