<?xml version="1.0" encoding="utf-8"?>
<!-- Generator: Adobe Illustrator 23.0.1, SVG Export Plug-In . SVG Version: 6.00 Build 0)  -->
<svg version="1.1" id="Camada_1" xmlns="http://www.w3.org/2000/svg" xmlns:xlink="http://www.w3.org/1999/xlink" x="0px" y="0px"
	 width="64px" height="64px" viewBox="0 0 64 64" enable-background="new 0 0 64 64" xml:space="preserve">
<g>
	<g>
		<g>
			<path fill="#00CC66" d="M59.7,12.8c-2.4,0-4.3,1.9-4.3,4.3s1.9,4.3,4.3,4.3s4.3-1.9,4.3-4.3C64,14.7,62.1,12.8,59.7,12.8z
				 M59.7,19.2c-1.2,0-2.1-1-2.1-2.1c0-1.2,1-2.1,2.1-2.1s2.1,1,2.1,2.1C61.9,18.2,60.9,19.2,59.7,19.2z"/>
		</g>
	</g>
	<g>
		<g>
			<path fill="#00CC66" d="M4.3,48C1.9,48,0,49.9,0,52.3s1.9,4.3,4.3,4.3c2.4,0,4.3-1.9,4.3-4.3S6.6,48,4.3,48z M4.3,54.4
				c-1.2,0-2.1-1-2.1-2.1s1-2.1,2.1-2.1c1.2,0,2.1,1,2.1,2.1S5.4,54.4,4.3,54.4z"/>
		</g>
	</g>
	<g>
		<g>
			<path fill="#00CC66" d="M57.7,14.1l-9.2-4.4c-0.5-0.3-1.2,0-1.4,0.5c-0.3,0.5,0,1.2,0.5,1.4l9.2,4.4c0.1,0.1,0.3,0.1,0.5,0.1
				c0.4,0,0.8-0.2,1-0.6C58.4,15,58.2,14.4,57.7,14.1z"/>
		</g>
	</g>
	<g>
		<g>
			<path fill="#00CC66" d="M48,55.5c-2.4,0-4.3,1.9-4.3,4.3S45.6,64,48,64s4.3-1.9,4.3-4.3S50.4,55.5,48,55.5z M48,61.9
				c-1.2,0-2.1-1-2.1-2.1s1-2.1,2.1-2.1s2.1,1,2.1,2.1S49.2,61.9,48,61.9z"/>
		</g>
	</g>
	<g>
		<g>
			<path fill="#00CC66" d="M45.9,56.8l-9.2-4.4c-0.5-0.3-1.2,0-1.4,0.5c-0.3,0.5,0,1.2,0.5,1.4l9.2,4.4c0.1,0.1,0.3,0.1,0.5,0.1
				c0.4,0,0.8-0.2,1-0.6C46.7,57.7,46.5,57.1,45.9,56.8z"/>
		</g>
	</g>
	<g>
		<g>
			<path fill="#00CC66" d="M32,28.8c-2.4,0-4.3,1.9-4.3,4.3c0,2.4,1.9,4.3,4.3,4.3c2.4,0,4.3-1.9,4.3-4.3S34.4,28.8,32,28.8z
				 M32,35.2c-1.2,0-2.1-1-2.1-2.1c0-1.2,1-2.1,2.1-2.1c1.2,0,2.1,1,2.1,2.1S33.2,35.2,32,35.2z"/>
		</g>
	</g>
	<g>
		<g>
			<path fill="#00CC66" d="M30.1,30.3l-7.1-5.5c-0.5-0.4-1.1-0.3-1.5,0.2c-0.4,0.5-0.3,1.1,0.2,1.5l7.1,5.5c0.2,0.2,0.4,0.2,0.7,0.2
				c0.3,0,0.6-0.1,0.8-0.4C30.7,31.3,30.6,30.6,30.1,30.3z"/>
		</g>
	</g>
	<g>
		<g>
			<path fill="#00CC66" d="M51.2,27.7c-6.5,0-11.7,5.3-11.7,11.7s5.3,11.7,11.7,11.7s11.7-5.3,11.7-11.7S57.7,27.7,51.2,27.7z
				 M51.2,49.1c-5.3,0-9.6-4.3-9.6-9.6s4.3-9.6,9.6-9.6s9.6,4.3,9.6,9.6S56.5,49.1,51.2,49.1z"/>
		</g>
	</g>
	<g>
		<g>
			<path fill="#00CC66" d="M51.2,32c-2.4,0-4.3,1.9-4.3,4.3c0,2.4,1.9,4.3,4.3,4.3c2.4,0,4.3-1.9,4.3-4.3S53.6,32,51.2,32z
				 M51.2,38.4c-1.2,0-2.1-1-2.1-2.1c0-1.2,1-2.1,2.1-2.1c1.2,0,2.1,1,2.1,2.1C53.3,37.4,52.4,38.4,51.2,38.4z"/>
		</g>
	</g>
	<g>
		<g>
			<path fill="#00CC66" d="M54.3,42.7h-6.2c-1.8,0-3.3,1.4-3.3,3.2v2.8c0,0.4,0.2,0.7,0.5,0.9c1.8,1,3.8,1.6,5.9,1.6
				s4.1-0.5,5.9-1.6c0.3-0.2,0.5-0.5,0.5-0.9v-2.8C57.6,44.1,56.1,42.7,54.3,42.7z M55.5,48.1c-2.7,1.3-5.9,1.3-8.5,0v-2.2
				c0-0.6,0.5-1.1,1.2-1.1h6.2c0.6,0,1.2,0.5,1.2,1.1L55.5,48.1L55.5,48.1z"/>
		</g>
	</g>
	<g>
		<g>
			<path fill="#00CC66" d="M25.6,40.5c-6.5,0-11.7,5.3-11.7,11.7S19.1,64,25.6,64s11.7-5.3,11.7-11.7S32.1,40.5,25.6,40.5z
				 M25.6,61.9c-5.3,0-9.6-4.3-9.6-9.6s4.3-9.6,9.6-9.6s9.6,4.3,9.6,9.6S30.9,61.9,25.6,61.9z"/>
		</g>
	</g>
	<g>
		<g>
			<path fill="#00CC66" d="M25.6,44.8c-2.4,0-4.3,1.9-4.3,4.3c0,2.4,1.9,4.3,4.3,4.3s4.3-1.9,4.3-4.3C29.9,46.7,28,44.8,25.6,44.8z
				 M25.6,51.2c-1.2,0-2.1-1-2.1-2.1c0-1.2,1-2.1,2.1-2.1c1.2,0,2.1,1,2.1,2.1S26.8,51.2,25.6,51.2z"/>
		</g>
	</g>
	<g>
		<g>
			<path fill="#00CC66" d="M28.7,55.5h-6.2c-1.8,0-3.3,1.4-3.3,3.2v2.8c0,0.4,0.2,0.7,0.5,0.9c1.8,1,3.8,1.6,5.9,1.6
				s4.1-0.5,5.9-1.6c0.3-0.2,0.5-0.5,0.5-0.9v-2.8C32,56.9,30.5,55.5,28.7,55.5z M29.9,60.9c-2.7,1.3-5.9,1.3-8.5,0v-2.2
				c0-0.6,0.5-1.1,1.2-1.1h6.2c0.6,0,1.2,0.5,1.2,1.1L29.9,60.9L29.9,60.9z"/>
		</g>
	</g>
	<g>
		<g>
			<path fill="#00CC66" d="M11.7,13.9C5.3,13.9,0,19.1,0,25.6s5.3,11.7,11.7,11.7s11.7-5.3,11.7-11.7C23.5,19.1,18.2,13.9,11.7,13.9
				z M11.7,35.2c-5.3,0-9.6-4.3-9.6-9.6S6.4,16,11.7,16s9.6,4.3,9.6,9.6C21.3,30.9,17,35.2,11.7,35.2z"/>
		</g>
	</g>
	<g>
		<g>
			<path fill="#00CC66" d="M11.7,18.1c-2.4,0-4.3,1.9-4.3,4.3s1.9,4.3,4.3,4.3c2.4,0,4.3-1.9,4.3-4.3S14.1,18.1,11.7,18.1z
				 M11.7,24.5c-1.2,0-2.1-1-2.1-2.1s1-2.1,2.1-2.1c1.2,0,2.1,1,2.1,2.1S12.9,24.5,11.7,24.5z"/>
		</g>
	</g>
	<g>
		<g>
			<path fill="#00CC66" d="M14.8,28.8H8.6c-1.8,0-3.3,1.4-3.3,3.2v2.8c0,0.4,0.2,0.7,0.5,0.9c1.8,1,3.8,1.6,5.9,1.6s4.1-0.5,5.9-1.6
				c0.3-0.2,0.5-0.5,0.5-0.9V32C18.1,30.2,16.7,28.8,14.8,28.8z M16,34.2c-2.7,1.3-5.9,1.3-8.5,0V32c0-0.6,0.5-1.1,1.2-1.1h6.2
				c0.6,0,1.2,0.5,1.2,1.1L16,34.2L16,34.2z"/>
		</g>
	</g>
	<g>
		<g>
			<path fill="#00CC66" d="M37.3,0c-6.5,0-11.7,5.3-11.7,11.7s5.3,11.7,11.7,11.7s11.7-5.3,11.7-11.7C49.1,5.3,43.8,0,37.3,0z
				 M37.3,21.3c-5.3,0-9.6-4.3-9.6-9.6s4.3-9.6,9.6-9.6s9.6,4.3,9.6,9.6C46.9,17,42.6,21.3,37.3,21.3z"/>
		</g>
	</g>
	<g>
		<g>
			<path fill="#00CC66" d="M37.3,4.3c-2.4,0-4.3,1.9-4.3,4.3s1.9,4.3,4.3,4.3s4.3-1.9,4.3-4.3S39.7,4.3,37.3,4.3z M37.3,10.7
				c-1.2,0-2.1-1-2.1-2.1c0-1.2,1-2.1,2.1-2.1s2.1,1,2.1,2.1C39.5,9.7,38.5,10.7,37.3,10.7z"/>
		</g>
	</g>
	<g>
		<g>
			<path fill="#00CC66" d="M40.4,14.9h-6.2c-1.8,0-3.3,1.4-3.3,3.2V21c0,0.4,0.2,0.7,0.5,0.9c1.8,1,3.8,1.6,5.9,1.6s4.1-0.5,5.9-1.6
				c0.3-0.2,0.5-0.5,0.5-0.9v-2.8C43.7,16.4,42.3,14.9,40.4,14.9z M41.6,20.3c-2.7,1.3-5.9,1.3-8.5,0v-2.2c0-0.6,0.5-1.1,1.2-1.1
				h6.2c0.6,0,1.2,0.5,1.2,1.1L41.6,20.3L41.6,20.3z"/>
		</g>
	</g>
	<g>
		<g>
			<path fill="#00CC66" d="M27.5,11c-0.4-0.4-1.1-0.5-1.5-0.1l-7.4,6.3c-0.4,0.4-0.5,1.1-0.1,1.5c0.2,0.2,0.5,0.4,0.8,0.4
				c0.2,0,0.5-0.1,0.7-0.3l7.4-6.3C27.8,12.2,27.9,11.5,27.5,11z"/>
		</g>
	</g>
	<g>
		<g>
			<path fill="#00CC66" d="M51,28.2l-6.4-8.5c-0.4-0.5-1-0.6-1.5-0.2c-0.5,0.4-0.6,1-0.2,1.5l6.4,8.5c0.2,0.3,0.5,0.4,0.9,0.4
				c0.2,0,0.4-0.1,0.6-0.2C51.2,29.3,51.3,28.6,51,28.2z"/>
		</g>
	</g>
	<g>
		<g>
			<path fill="#00CC66" d="M42.2,43c-0.4-0.5-1-0.6-1.5-0.2l-6,4.5c-0.5,0.4-0.6,1-0.2,1.5c0.2,0.3,0.5,0.4,0.9,0.4
				c0.2,0,0.4-0.1,0.6-0.2l6-4.5C42.5,44.1,42.6,43.5,42.2,43z"/>
		</g>
	</g>
	<g>
		<g>
			<path fill="#00CC66" d="M14.9,51.2H7.5c-0.6,0-1.1,0.5-1.1,1.1s0.5,1.1,1.1,1.1h7.5c0.6,0,1.1-0.5,1.1-1.1S15.5,51.2,14.9,51.2z"
				/>
		</g>
	</g>
	<g>
		<g>
			<path fill="#00CC66" d="M11.7,0C9.4,0,7.5,1.9,7.5,4.3c0,2.4,1.9,4.3,4.3,4.3c2.4,0,4.3-1.9,4.3-4.3C16,1.9,14.1,0,11.7,0z
				 M11.7,6.4c-1.2,0-2.1-1-2.1-2.1c0-1.2,1-2.1,2.1-2.1c1.2,0,2.1,1,2.1,2.1C13.9,5.4,12.9,6.4,11.7,6.4z"/>
		</g>
	</g>
	<g>
		<g>
			<path fill="#00CC66" d="M11.7,6.4c-0.6,0-1.1,0.5-1.1,1.1v7.5c0,0.6,0.5,1.1,1.1,1.1s1.1-0.5,1.1-1.1V7.5
				C12.8,6.9,12.3,6.4,11.7,6.4z"/>
		</g>
	</g>
</g>
</svg>
