<?xml version="1.0" encoding="utf-8"?>
<!-- Generator: Adobe Illustrator 23.0.1, SVG Export Plug-In . SVG Version: 6.00 Build 0)  -->
<svg version="1.1" id="Camada_1" xmlns="http://www.w3.org/2000/svg" xmlns:xlink="http://www.w3.org/1999/xlink" x="0px" y="0px"
	 width="64px" height="48px" viewBox="0 0 64 48" enable-background="new 0 0 64 48" xml:space="preserve">
<g id="Message">
	<g>
		<g>
			<path fill="#0066CC" d="M63.1,12.6C63.1,12.6,63.1,12.6,63.1,12.6L63.1,12.6L59,12.2c-0.6-0.1-1-0.5-0.9-0.9
				c0-0.2,0.2-0.4,0.4-0.5l3.3-1.9c0.5-0.3,0.6-0.8,0.2-1.1l-3.8-3.8c-0.4-0.4-1-0.4-1.5-0.2l-3.3,1.9c-0.5,0.3-1.1,0.2-1.5-0.2
				c-0.2-0.2-0.2-0.4-0.2-0.6l0.6-3.1c0.1-0.4-0.3-0.8-0.9-0.9c0,0,0,0,0,0l-6.3-0.7c-0.6-0.1-1.1,0.2-1.2,0.7c0,0,0,0,0,0L43.3,4
				c-0.1,0.4-0.6,0.7-1.2,0.7c-0.3,0-0.5-0.1-0.7-0.3l-2.5-2.5c-0.4-0.4-1-0.4-1.5-0.2l-3.2,1.8c-1.4-0.1-2.9-0.1-4.3,0
				C20.4,4.3,13,9.9,12.1,17.1c0,0.2,0,0.4-0.1,0.7h-0.3c-0.5,0-0.9,0.3-1,0.6L9.9,21L7,19.5c-0.4-0.2-1-0.2-1.4,0.1l-3.2,2.4
				c-0.4,0.3-0.4,0.7-0.1,1l2,2.2l-3.5,0.6C0.3,25.8,0,26.1,0,26.5v3.2c0,0.4,0.4,0.7,0.8,0.8L4.3,31l-2,2.2c-0.3,0.3-0.2,0.7,0.1,1
				l3.2,2.4C6,36.9,6.6,36.9,7,36.7l2.9-1.5l0.7,2.6c0.1,0.4,0.5,0.6,1,0.6h4.2c0.5,0,0.9-0.3,1-0.6l0.7-2.6l2.9,1.5
				c0.4,0.2,1,0.2,1.4-0.1l1.6-1.2v2.3c0,1.1,0.8,2.2,2.1,2.7v4.4c0,1.8,1.9,3.2,4.2,3.2h4.2c2.3,0,4.2-1.4,4.2-3.2v-4.4
				c1.3-0.6,2.1-1.6,2.1-2.7v-3.2c0-1.3,1-2.6,2.5-3.3c0.9-0.4,1.7-0.9,2.5-1.4l-1.4-1.2c-0.7,0.5-1.4,0.9-2.2,1.3
				c-2.1,1-3.4,2.7-3.4,4.6v3.2c0,0.9-1,1.6-2.1,1.6h-8.5c-1.2,0-2.1-0.7-2.1-1.6v-3.2c0-1.8-1.3-3.5-3.4-4.5
				c-8.4-4-11-12.3-5.7-18.6C20,7.4,25.7,5,31.9,5c0,0,0,0.1,0,0.1c0,0.2,0,0.4,0.2,0.6l2.5,2.5c0.3,0.3,0.3,0.6,0.1,0.9
				c-0.2,0.3-0.6,0.4-1.1,0.4L29.4,9c-0.6-0.1-1.1,0.2-1.2,0.7c0,0,0,0,0,0l-0.9,4.7c-0.1,0.4,0.3,0.8,0.9,0.9c0,0,0,0,0,0l4.1,0.4
				c0.6,0.1,1,0.5,0.9,0.9c0,0.2-0.2,0.4-0.4,0.5l-3.3,1.9c-0.5,0.3-0.6,0.8-0.2,1.1l3.8,3.8c0.4,0.4,1,0.4,1.5,0.2l3.3-1.9
				c0.5-0.3,1.1-0.2,1.5,0.2c0.2,0.2,0.2,0.4,0.2,0.6l-0.6,3.1C39,26.6,39.4,27,40,27c0,0,0,0,0,0l6.3,0.7c0,0,0.1,0,0.1,0
				c0.5,0,1-0.3,1.1-0.7l0.6-3.1c0.1-0.4,0.6-0.7,1.2-0.7c0.3,0,0.5,0.1,0.7,0.3l2.5,2.5c0.4,0.4,1,0.4,1.5,0.2l5.1-2.9
				c0.5-0.3,0.6-0.8,0.2-1.1l-2.5-2.5c-0.3-0.3-0.3-0.6-0.1-0.9c0.2-0.3,0.6-0.4,1.1-0.4l4.1,0.4c0.6,0.1,1.1-0.2,1.2-0.7
				c0,0,0,0,0,0l0.9-4.7C64.1,13.1,63.7,12.7,63.1,12.6z M27.9,40.8h8.5v1.6h-8.5V40.8z M27.9,44h8.5v0.8c0,0.9-1,1.6-2.1,1.6H30
				c-1.2,0-2.1-0.7-2.1-1.6V44z M19.4,30.3c0.6,0.4,1.2,0.7,1.8,1c1,0.5,1.8,1.2,2.1,2L21.1,35l-2.2-1.1c-1-0.5-2.3-0.3-3,0.4
				c-0.2,0.2-0.3,0.4-0.3,0.6l-0.6,2h-2.5l-0.6-2c-0.2-0.9-1.4-1.4-2.5-1.2c-0.3,0-0.5,0.1-0.8,0.2L6.5,35l-1.9-1.4l1.5-1.7
				c0.7-0.7,0.4-1.7-0.5-2.2c-0.2-0.1-0.5-0.2-0.8-0.2L2.1,29v-1.9l2.6-0.4c1.1-0.2,1.9-1,1.6-1.9c-0.1-0.2-0.2-0.4-0.3-0.6
				l-1.5-1.7l1.9-1.4l2.2,1.1c1,0.5,2.3,0.3,3-0.4c0.2-0.2,0.3-0.4,0.3-0.6l0.2-0.7c0.2,0.9,0.5,1.8,0.8,2.7c-3.5,0.3-6,2.7-5.6,5.3
				c0.4,2.6,3.6,4.5,7.1,4.2C16.6,32.7,18.5,31.7,19.4,30.3z M17.8,29.2c-0.8,1.7-3.2,2.5-5.4,1.9C10.2,30.5,9,28.7,9.8,27
				c0.6-1.3,2.2-2.1,4-2.1c0,0,0,0,0,0C14.8,26.5,16.2,27.9,17.8,29.2z M61.1,17.2l-3.1-0.3c-1.7-0.2-3.4,0.7-3.6,2
				c-0.1,0.6,0.1,1.3,0.6,1.8l1.9,1.9l-3.4,1.9l-1.9-1.9c-1.1-1.1-3.1-1.3-4.5-0.5c-0.7,0.4-1.1,0.9-1.2,1.6L45.5,26l-4.2-0.5
				l0.4-2.3c0.2-1.3-1-2.5-2.7-2.7c-0.8-0.1-1.7,0.1-2.4,0.5l-2.5,1.4l-2.5-2.5l2.5-1.4c1.4-0.8,1.7-2.3,0.6-3.3
				c-0.5-0.5-1.3-0.8-2.1-0.9l-3.1-0.3l0.6-3.2l3.1,0.3c1.7,0.2,3.4-0.7,3.6-2c0.1-0.6-0.1-1.3-0.6-1.8l-1.9-1.9l3.4-1.9l1.9,1.9
				c1.1,1.1,3.1,1.3,4.5,0.5c0.7-0.4,1.1-0.9,1.2-1.6l0.4-2.3L50,2.3l-0.4,2.3c-0.2,1.3,1,2.5,2.7,2.7c0.8,0.1,1.7-0.1,2.4-0.5
				l2.5-1.4l2.5,2.5l-2.5,1.4c-1.4,0.8-1.7,2.3-0.6,3.3c0.5,0.5,1.3,0.8,2.1,0.9l3.1,0.3L61.1,17.2z"/>
		</g>
	</g>
	<g>
		<g>
			<path fill="#0066CC" d="M45.4,7.6c-4.7,0-8.5,2.9-8.5,6.4s3.8,6.4,8.5,6.4s8.5-2.9,8.5-6.4C53.9,10.4,50.1,7.6,45.4,7.6z
				 M45.4,18.7c-3.5,0-6.4-2.1-6.4-4.8s2.9-4.8,6.4-4.8s6.4,2.1,6.4,4.8C51.8,16.6,48.9,18.7,45.4,18.7z"/>
		</g>
	</g>
	<g>
		<g>
			<rect x="30.8" y="35.3" fill="#0066CC" width="2.1" height="2.4"/>
		</g>
	</g>
	<g>
		<g>
			<path fill="#0066CC" d="M27.2,27.4C20.7,25.5,17.4,20,20,15c1-1.9,2.8-3.5,5.1-4.6l-1.1-1.3c-6.9,3.3-9,10.2-4.7,15.4
				c1.7,2,4.2,3.6,7.2,4.4c2.6,0.8,4.4,2.6,4.4,4.7h2.1C32.9,30.9,30.7,28.4,27.2,27.4z"/>
		</g>
	</g>
	<g>
		<g>
			<rect x="52.1" y="29.7" fill="#0066CC" width="7.4" height="1.6"/>
		</g>
	</g>
	<g>
		<g>
			<polygon fill="#0066CC" points="50.3,35.1 51.7,33.8 58,37.8 56.7,39.1 			"/>
		</g>
	</g>
	<g>
		<g>
			<rect x="45.7" y="36" fill="#0066CC" width="2.1" height="5.6"/>
		</g>
	</g>
	<g>
		<g>
			<polygon fill="#0066CC" points="0.8,13.8 9.3,12.2 9.8,13.7 1.3,15.3 			"/>
		</g>
	</g>
	<g>
		<g>
			<polygon fill="#0066CC" points="2.6,5.6 3.8,4.3 11.2,8.3 10,9.6 			"/>
		</g>
	</g>
	<g>
		<g>
			<polygon fill="#0066CC" points="11.7,0.4 13.7,0 15.9,6.4 13.9,6.8 			"/>
		</g>
	</g>
</g>
</svg>
