<?xml version="1.0" encoding="utf-8"?>
<!-- Generator: Adobe Illustrator 23.0.1, SVG Export Plug-In . SVG Version: 6.00 Build 0)  -->
<svg version="1.1" id="Camada_1" xmlns="http://www.w3.org/2000/svg" xmlns:xlink="http://www.w3.org/1999/xlink" x="0px" y="0px"
	 width="64px" height="64px" viewBox="0 0 64 64" enable-background="new 0 0 64 64" xml:space="preserve">
<g id="Co_Thinking">
	<path fill="#D3D3D3" d="M17,0C11.2,0,6.5,4.2,6.5,9.3c0,3.1,1.8,6,4.7,7.7v3.6h11.7V17c2.9-1.7,4.7-4.6,4.7-7.7
		C27.6,4.2,22.9,0,17,0z M17,11.4c-1.3,0-2.3-0.9-2.3-2.1s1.1-2.1,2.3-2.1s2.3,0.9,2.3,2.1S18.3,11.4,17,11.4z"/>
	<path fill="#00CC66" d="M64,0l-6.8,4.5l-6.9,14.1h-5.5l-2.2-4.1H44c2.6,0,4.7-1.9,4.7-4.1V6.2h2.3V0h-7v6.2h2.3v4.1
		c0,1.1-1.1,2.1-2.3,2.1h-2.5l-3-5.7l3.6-1.6L30.4,0.7l-3.4,10.6l3.6-1.6l1.4,2.8c-2.4,0.1-4.4,1.9-4.4,4.1v2.1h-9.4v-6.4
		c1.4-0.4,2.3-1.6,2.3-2.9c0-1.7-1.6-3.1-3.5-3.1s-3.5,1.4-3.5,3.1c0,1.3,1,2.5,2.3,2.9v6.4H8.3l-0.2,0.8C7.6,22,7.5,24.7,8,27.4
		L0,39.9l8.9,1.8v13h11.7V64h28.2V49.6c8.1-5.1,12.9-13.3,12.9-22.1l0-3.8c0-1.4-0.2-2.9-0.5-4.3L61,18.6h-2.3L64,7.4V0z M46.4,2.1
		h2.3v2.1h-2.3V2.1z M17,8.3c0.6,0,1.2,0.5,1.2,1c0,0.6-0.5,1-1.2,1s-1.2-0.5-1.2-1C15.9,8.7,16.4,8.3,17,8.3z M61.7,5.6L60.4,5
		l1.3-0.9V5.6z M42.2,18.6h-4.5l-2.1-4.1H40L42.2,18.6z M30.6,7.3l1.2-3.8l4.7,1.8l-1.1,0.5l3.5,6.7h-4.4l-2.9-5.5L30.6,7.3z
		 M30,16.5c0-1.1,1.1-2.1,2.3-2.1H33l2.1,4.1H30V16.5z M59.3,23.7l0,3.8c0,8.3-4.6,16-12.4,20.7l-0.5,0.3v13.4H22.9v-9.3H11.2V40
		l-7.6-1.5l6.9-10.8l-0.1-0.4c-0.4-2.3-0.5-4.5-0.1-6.7H59C59.2,21.7,59.3,22.7,59.3,23.7z M52.9,18.6l5.9-12l2.6,1.1l-5.1,10.9
		H52.9z"/>
	<path fill="#00CC66" d="M19.4,28.9c3.2,0,5.9-2.3,5.9-5.2h-2.3c0,1.7-1.6,3.1-3.5,3.1s-3.5-1.4-3.5-3.1h-2.3
		C13.5,26.6,16.2,28.9,19.4,28.9z"/>
</g>
</svg>
