<?xml version="1.0" encoding="utf-8"?>
<!-- Generator: Adobe Illustrator 23.0.1, SVG Export Plug-In . SVG Version: 6.00 Build 0)  -->
<svg version="1.1" id="Camada_1" xmlns="http://www.w3.org/2000/svg" xmlns:xlink="http://www.w3.org/1999/xlink" x="0px" y="0px"
	 width="64px" height="64px" viewBox="0 0 64 64" enable-background="new 0 0 64 64" xml:space="preserve">
<g>
	<g>
		<g>
			<path fill="#6600FF" d="M48.5,21c0-9.3-7.4-16.8-16.5-16.8S15.5,11.7,15.5,21S22.9,37.8,32,37.8S48.5,30.2,48.5,21z M32,35.7
				c-8,0-14.5-6.6-14.5-14.7S24,6.3,32,6.3S46.5,12.9,46.5,21S40,35.7,32,35.7z"/>
			<rect x="50.6" y="19.9" fill="#6600FF" width="2.1" height="2.1"/>
			<rect x="54.7" y="19.9" fill="#6600FF" width="2.1" height="2.1"/>
			<rect x="7.2" y="19.9" fill="#6600FF" width="2.1" height="2.1"/>
			<rect x="11.4" y="19.9" fill="#6600FF" width="2.1" height="2.1"/>
			<rect x="31" y="39.9" fill="#6600FF" width="2.1" height="2.1"/>
			<rect x="31" fill="#6600FF" width="2.1" height="2.1"/>
			<path fill="#6600FF" d="M50.3,18l2-0.3c-1.4-9-8.3-16-17.1-17.4l-0.3,2.1C42.9,3.6,49.1,9.9,50.3,18z"/>
			<path fill="#6600FF" d="M29.1,2.4l-0.3-2.1C19.9,1.7,13,8.7,11.6,17.7l2,0.3C14.9,9.9,21.1,3.6,29.1,2.4z"/>
			<path fill="#6600FF" d="M29.1,39.6C21.1,38.3,14.9,32,13.7,24l-2,0.3c1.4,9,8.3,16,17.1,17.4L29.1,39.6z"/>
			<path fill="#6600FF" d="M50.3,24c-1.3,8.1-7.4,14.4-15.4,15.6l0.3,2.1c8.8-1.4,15.7-8.4,17.1-17.4L50.3,24z"/>
			<path fill="#6600FF" d="M59.9,53.6v-4.3H33v-5.2H31v5.2H4.1v4.3C1.8,54.1,0,56.2,0,58.8C0,61.6,2.3,64,5.2,64s5.2-2.4,5.2-5.2
				c0-2.5-1.8-4.7-4.1-5.1v-2.2H31v2.2c-2.4,0.5-4.1,2.6-4.1,5.1c0,2.9,2.3,5.2,5.2,5.2s5.2-2.4,5.2-5.2c0-2.5-1.8-4.7-4.1-5.1v-2.2
				h24.8v2.2c-2.4,0.5-4.1,2.6-4.1,5.1c0,2.9,2.3,5.2,5.2,5.2s5.2-2.4,5.2-5.2C64,56.2,62.2,54.1,59.9,53.6z M8.3,58.8
				c0,1.7-1.4,3.1-3.1,3.1s-3.1-1.4-3.1-3.1s1.4-3.1,3.1-3.1S8.3,57,8.3,58.8z M35.1,58.8c0,1.7-1.4,3.1-3.1,3.1
				c-1.7,0-3.1-1.4-3.1-3.1s1.4-3.1,3.1-3.1C33.7,55.6,35.1,57,35.1,58.8z M58.8,61.9c-1.7,0-3.1-1.4-3.1-3.1s1.4-3.1,3.1-3.1
				c1.7,0,3.1,1.4,3.1,3.1S60.5,61.9,58.8,61.9z"/>
			<rect x="54.7" y="28.3" fill="#6600FF" width="2.1" height="10.5"/>
			<rect x="54.7" y="40.9" fill="#6600FF" width="2.1" height="2.1"/>
			<rect x="50.6" y="35.7" fill="#6600FF" width="2.1" height="5.2"/>
			<rect x="50.6" y="43" fill="#6600FF" width="2.1" height="2.1"/>
			<rect x="46.5" y="40.9" fill="#6600FF" width="2.1" height="2.1"/>
			<rect x="46.5" y="45.1" fill="#6600FF" width="2.1" height="2.1"/>
			<rect x="7.2" y="28.3" fill="#6600FF" width="2.1" height="10.5"/>
			<rect x="7.2" y="40.9" fill="#6600FF" width="2.1" height="2.1"/>
			<rect x="11.4" y="35.7" fill="#6600FF" width="2.1" height="5.2"/>
			<rect x="11.4" y="43" fill="#6600FF" width="2.1" height="2.1"/>
			<rect x="15.5" y="40.9" fill="#6600FF" width="2.1" height="2.1"/>
			<rect x="15.5" y="45.1" fill="#6600FF" width="2.1" height="2.1"/>
			<path fill="#6600FF" d="M33.5,10.5H33V8.4H31v2.1h-0.5c-3.1,0-5.7,2.6-5.7,5.8s2.5,5.8,5.7,5.8h3.1c2,0,3.6,1.6,3.6,3.7
				s-1.6,3.7-3.6,3.7h-3.1c-2,0-3.6-1.6-3.6-3.7v-0.5h-2.1v0.5c0,3.2,2.5,5.8,5.7,5.8H31v2.1H33v-2.1h0.5c3.1,0,5.7-2.6,5.7-5.8
				s-2.5-5.8-5.7-5.8h-3.1c-2,0-3.6-1.6-3.6-3.7s1.6-3.7,3.6-3.7h3.1c2,0,3.6,1.6,3.6,3.7v0.5h2.1v-0.5
				C39.2,13.1,36.7,10.5,33.5,10.5z"/>
		</g>
	</g>
</g>
</svg>
