<?xml version="1.0" encoding="utf-8"?>
<!-- Generator: Adobe Illustrator 23.0.1, SVG Export Plug-In . SVG Version: 6.00 Build 0)  -->
<svg version="1.1" id="Camada_1" xmlns="http://www.w3.org/2000/svg" xmlns:xlink="http://www.w3.org/1999/xlink" x="0px" y="0px"
	 width="60px" height="64px" viewBox="0 0 60 64" enable-background="new 0 0 60 64" xml:space="preserve">
<g id="Online">
	<path fill="#00CC66" d="M55.2,31h-9.8c-0.1-5.1-0.7-10-1.9-14.4h6.4c0.5,0,1-0.5,1-1s-0.4-1-1-1h-7c-1-3.3-2.3-6.2-3.9-8.5
		c-0.3-0.5-0.9-0.6-1.3-0.2c-0.4,0.3-0.5,1-0.2,1.4c1.4,2,2.5,4.5,3.4,7.3H31V5.1c0-0.6-0.4-1-1-1s-1,0.5-1,1v9.4h-9.9
		c0.9-2.8,2.1-5.3,3.4-7.3c0.3-0.5,0.2-1.1-0.2-1.4c-0.4-0.3-1-0.2-1.3,0.2c-1.6,2.3-2.9,5.2-3.9,8.5h-7c-0.5,0-1,0.5-1,1s0.4,1,1,1
		h6.4c-1.1,4.4-1.8,9.3-1.9,14.4H4.8c-0.5,0-1,0.5-1,1s0.4,1,1,1h9.8c0.1,5.1,0.7,10,1.9,14.4h-6.4c-0.5,0-1,0.5-1,1s0.4,1,1,1h7
		c1,3.3,2.3,6.2,3.9,8.5c0.2,0.3,0.5,0.4,0.8,0.4c0.2,0,0.4-0.1,0.6-0.2c0.4-0.3,0.5-1,0.2-1.4c-1.4-2-2.5-4.5-3.4-7.3H29v9.4
		c0,0.6,0.4,1,1,1s1-0.5,1-1v-9.4h9.9c-0.9,2.8-2.1,5.3-3.4,7.3c-0.3,0.5-0.2,1.1,0.2,1.4c0.2,0.1,0.4,0.2,0.6,0.2
		c0.3,0,0.6-0.1,0.8-0.4c1.6-2.3,2.9-5.2,3.9-8.5h7c0.5,0,1-0.5,1-1s-0.4-1-1-1h-6.4c1.1-4.4,1.8-9.3,1.9-14.4h9.8c0.5,0,1-0.5,1-1
		S55.7,31,55.2,31L55.2,31z M41.5,16.6c1.2,4.3,1.9,9.3,2,14.4H31V16.6H41.5z M18.5,16.6H29V31H16.5C16.6,25.8,17.3,20.9,18.5,16.6z
		 M18.5,47.4c-1.2-4.3-1.9-9.3-2-14.4H29v14.4H18.5z M41.5,47.4H31V33h12.5C43.4,38.2,42.7,43.1,41.5,47.4z"/>
	<path fill="#00CC66" d="M51.2,9.4C45.5,3.3,38,0,30,0S14.5,3.3,8.8,9.4S0,23.5,0,32c0,6.3,1.7,12.4,4.9,17.6L1.3,61.3
		c-0.1,0.4,0,0.8,0.2,1c0.3,0.3,0.6,0.4,1,0.2l11-3.9C18.4,62.2,24.1,64,30,64c8,0,15.5-3.3,21.2-9.4S60,40.5,60,32
		C60,23.5,56.9,15.4,51.2,9.4z M30,62c-5.7,0-11.2-1.8-15.8-5.2c-0.2-0.1-0.3-0.2-0.5-0.2c-0.1,0-0.2,0-0.3,0.1L3.7,60l3.2-10.3
		C7,49.5,7,49.1,6.8,48.9c-3.2-5-4.9-10.8-4.9-16.9C1.9,15.5,14.5,2,30,2s28.1,13.4,28.1,30C58.1,48.5,45.5,62,30,62z"/>
</g>
</svg>
