<?xml version="1.0" encoding="utf-8"?>
<!-- Generator: Adobe Illustrator 23.0.0, SVG Export Plug-In . SVG Version: 6.00 Build 0)  -->
<svg version="1.1" id="Camada_1" xmlns="http://www.w3.org/2000/svg" xmlns:xlink="http://www.w3.org/1999/xlink" x="0px" y="0px"
	 width="34.8px" height="42px" viewBox="0 0 34.8 42" style="enable-background:new 0 0 34.8 42;" xml:space="preserve">
<style type="text/css">
	.st0{fill:#FFFFFF;}
</style>
<g>
	<path id="LinkedIn" class="st0" d="M34.8,25.8V42h-7.5V26.8c0-3.8-1.1-6.4-3.8-6.4c-2.1,0-3.3,1.8-3.8,3.4
		c-0.2,0.6-0.2,1.4-0.2,2.3V42H12c0,0,0.1-25.7,0-28.3h7.5v4c0,0,0,0.1,0,0.1h0v-0.1c1-1.9,2.8-4.7,6.7-4.7
		C31.1,13,34.8,17,34.8,25.8z M4.2,0C1.7,0,0,2.1,0,4.9c0,2.7,1.6,4.9,4.1,4.9h0c2.6,0,4.2-2.2,4.2-4.9C8.3,2.1,6.8,0,4.2,0z
		 M0.4,42h7.5V13.7H0.4V42z"/>
</g>
</svg>
